<?xml version="1.0" standalone="no"?>
<!DOCTYPE svg PUBLIC "-//W3C//DTD SVG 20010904//EN"
 "http://www.w3.org/TR/2001/REC-SVG-20010904/DTD/svg10.dtd">
<svg version="1.0" xmlns="http://www.w3.org/2000/svg"
 width="1980.000000pt" height="4020.000000pt" viewBox="0 0 1980.000000 4020.000000"
 preserveAspectRatio="xMidYMid meet">

<g transform="translate(0.000000,4020.000000) scale(0.100000,-0.100000)"
fill="#000000" stroke="none">
<path d="M15389 38928 c-12 -22 -8 -119 27 -643 50 -744 55 -2214 9 -2990 -8
-132 -17 -310 -20 -395 -3 -85 -12 -229 -20 -320 -8 -91 -19 -248 -25 -350 -6
-102 -12 -192 -15 -200 -2 -8 -11 -116 -20 -240 -8 -124 -20 -261 -25 -305 -5
-44 -14 -136 -19 -205 -21 -267 -88 -923 -141 -1365 -10 -88 -28 -243 -40
-345 -20 -176 -32 -276 -80 -645 -50 -388 -122 -869 -144 -966 -14 -59 -37
-138 -51 -175 -44 -110 -126 -263 -169 -311 l-40 -46 -65 7 c-63 5 -221 56
-746 241 -823 289 -1855 490 -2960 577 -245 19 -352 22 -855 22 -513 0 -600
-3 -807 -22 -599 -57 -1105 -137 -1563 -250 -187 -45 -168 -34 -642 -417 -216
-175 -576 -427 -1033 -723 -197 -128 -334 -207 -605 -347 -151 -78 -295 -154
-320 -169 -51 -29 -80 -35 -60 -11 13 15 90 59 275 155 499 259 688 378 1345
849 404 289 841 631 851 665 4 12 4 53 2 91 -3 40 0 89 7 114 14 53 7 61 -62
61 -38 0 -50 -5 -66 -25 -29 -37 -47 -85 -36 -100 118 -158 100 -172 -341
-285 -429 -109 -775 -235 -1240 -453 -197 -92 -275 -119 -361 -125 -153 -10
-247 77 -304 280 -40 146 -56 242 -160 1008 -115 853 -213 1741 -310 2835 -73
825 -88 1036 -141 1905 -6 96 -13 526 -16 955 -5 778 0 1115 32 1860 25 577
28 688 21 748 -7 51 -10 57 -31 57 -31 0 -52 -31 -126 -187 -191 -403 -390
-928 -627 -1653 -166 -509 -462 -1549 -651 -2290 -115 -452 -240 -972 -249
-1039 -8 -55 -7 -63 10 -72 28 -15 23 -41 -6 -33 -22 5 -26 2 -35 -33 -21 -79
-105 -469 -166 -773 -35 -173 -104 -515 -154 -760 -96 -474 -149 -752 -260
-1375 -81 -447 -112 -658 -104 -698 l6 -28 31 30 c29 29 36 31 79 25 30 -4 47
-12 47 -20 0 -16 -46 -19 -55 -4 -13 20 -45 10 -60 -20 -9 -16 -20 -30 -25
-30 -6 0 -10 -13 -10 -29 0 -21 -9 -37 -32 -55 l-33 -25 -6 -143 c-4 -79 -10
-160 -14 -180 -7 -35 -5 -40 31 -73 21 -20 48 -35 62 -35 36 0 23 -15 -48 -58
-36 -22 -73 -53 -82 -69 -11 -18 -22 -69 -28 -134 -5 -57 -17 -133 -25 -169
-8 -36 -15 -83 -15 -105 0 -22 -9 -78 -20 -124 -18 -84 -18 -85 1 -123 20 -39
20 -39 -1 -72 -11 -19 -20 -50 -20 -74 0 -34 5 -45 36 -70 20 -16 52 -32 73
-36 51 -8 145 -48 222 -93 96 -57 456 -408 447 -435 -3 -8 -30 12 -68 52 -91
92 -229 218 -270 246 -19 13 -73 37 -120 53 -47 16 -127 48 -179 70 -90 39
-153 51 -165 32 -3 -5 -15 -69 -26 -142 -11 -74 -30 -189 -40 -257 -11 -67
-25 -175 -30 -240 -6 -64 -17 -142 -25 -172 -18 -65 -19 -106 -4 -148 8 -24 5
-51 -15 -137 -18 -74 -29 -158 -36 -270 -5 -90 -15 -176 -20 -191 -6 -15 -15
-86 -21 -157 -5 -71 -13 -148 -18 -171 -5 -22 -12 -86 -15 -141 -4 -55 -15
-176 -26 -270 -10 -93 -24 -224 -30 -290 -20 -225 -41 -430 -50 -490 -5 -33
-12 -116 -16 -184 -6 -115 -5 -124 10 -118 10 4 24 7 31 7 8 0 23 9 34 21 23
25 35 11 21 -26 -5 -14 -10 -39 -10 -54 0 -16 -9 -40 -20 -54 -11 -14 -20 -32
-20 -41 0 -11 -9 -16 -29 -16 -28 0 -28 -1 -35 -77 -3 -42 -6 -94 -6 -115 l0
-39 31 18 c40 23 178 165 315 323 145 167 597 624 709 716 50 41 149 128 220
194 72 66 134 120 139 120 15 0 -32 -46 -149 -147 -135 -117 -612 -603 -832
-850 -219 -243 -389 -406 -420 -400 -13 2 -23 4 -23 3 0 0 -9 -85 -20 -189
-11 -103 -24 -296 -30 -430 -5 -133 -14 -278 -20 -322 -6 -44 -14 -213 -20
-375 -5 -162 -15 -350 -22 -418 -9 -88 -9 -128 -2 -140 14 -22 120 -34 194
-23 61 10 80 2 55 -22 -24 -24 -81 -37 -167 -37 -51 0 -80 -4 -85 -12 -4 -7
-11 -227 -15 -488 -4 -261 -12 -547 -18 -635 -13 -202 -13 -1051 0 -1250 6
-82 15 -244 20 -360 6 -115 15 -248 21 -295 5 -47 14 -134 19 -194 5 -59 16
-161 24 -225 8 -64 19 -159 25 -211 6 -52 16 -112 23 -132 11 -36 14 -38 52
-38 23 0 94 -5 159 -12 172 -18 147 -34 -46 -29 l-157 3 0 -24 c0 -31 72 -414
110 -582 66 -296 179 -738 194 -761 17 -26 42 -35 33 -12 -3 8 -8 44 -12 82
-11 96 14 83 37 -21 9 -43 23 -100 31 -125 8 -26 11 -52 8 -58 -10 -16 -51 16
-51 40 0 11 -4 17 -10 14 -22 -14 -6 -84 76 -346 48 -151 91 -290 96 -309 28
-100 254 -712 324 -876 40 -94 42 -127 13 -195 -20 -45 -20 -51 -6 -67 8 -9
28 -44 45 -77 28 -58 30 -66 35 -230 5 -163 26 -331 47 -367 6 -11 6 -18 -2
-20 -18 -6 5 -246 29 -292 12 -24 23 -35 27 -27 4 6 18 11 32 11 21 0 25 -4
22 -22 -2 -19 -10 -23 -36 -24 -18 0 -38 -7 -43 -15 -14 -23 -10 -88 11 -167
14 -53 17 -80 10 -98 -6 -16 -7 -50 -1 -92 6 -37 17 -132 26 -212 8 -80 20
-179 26 -221 9 -65 9 -81 -5 -107 -22 -42 -20 -51 12 -85 24 -26 27 -36 28
-105 2 -150 37 -520 53 -565 6 -16 13 -12 51 30 24 26 91 98 149 158 111 116
97 94 -29 -46 -105 -116 -160 -185 -160 -198 0 -7 4 -10 8 -7 15 9 52 -24 52
-46 0 -21 -2 -20 -30 7 -42 40 -57 24 -40 -42 7 -26 16 -109 20 -183 8 -159
56 -662 71 -736 10 -51 11 -52 52 -58 54 -8 344 -34 517 -46 285 -20 283 -20
292 -34 15 -22 7 -25 -55 -20 -442 34 -573 45 -637 49 -41 3 -92 8 -112 11
-33 5 -39 3 -46 -16 -5 -13 -5 -43 -1 -69 4 -25 15 -131 24 -234 13 -142 15
-198 6 -230 -8 -34 -7 -54 4 -92 10 -31 15 -93 15 -174 0 -205 18 -510 35
-601 18 -93 68 -282 91 -335 7 -18 20 -71 28 -117 32 -184 325 -1158 526
-1753 161 -473 349 -975 467 -1245 75 -170 224 -460 281 -545 41 -61 51 -70
81 -73 l34 -3 -7 88 c-3 48 -18 180 -32 293 -67 552 -149 1474 -204 2300 -11
162 -26 390 -34 505 -8 116 -18 269 -21 340 -4 72 -13 173 -21 225 -8 62 -10
108 -4 134 4 21 7 44 5 50 -6 18 -24 248 -35 451 -5 105 -17 276 -25 380 -8
105 -22 289 -31 410 -8 121 -18 222 -20 225 -3 3 -68 7 -145 8 -145 4 -154 8
-126 46 12 17 23 17 138 8 68 -6 126 -9 128 -6 2 2 -1 50 -7 106 -7 57 -14
136 -18 177 -4 56 -13 85 -35 123 -33 56 -36 83 -12 110 15 17 16 26 4 86 -6
37 -20 120 -31 184 -10 65 -21 121 -24 126 -2 4 -7 59 -11 122 -6 112 -23 268
-30 280 -2 4 -5 42 -6 86 -1 43 -10 124 -20 179 -11 55 -22 128 -25 162 -4 35
-10 63 -14 63 -4 0 -7 12 -6 28 1 26 -40 294 -70 457 -8 44 -35 168 -59 275
-24 107 -71 332 -104 500 -34 168 -64 315 -67 328 -7 25 3 28 31 8 11 -7 58
-27 105 -44 280 -100 743 -315 1094 -509 43 -23 80 -43 82 -43 2 0 58 -32 126
-72 793 -461 1825 -1198 2692 -1922 434 -363 1019 -864 1185 -1015 51 -47 140
-126 196 -176 348 -306 638 -588 985 -958 66 -70 165 -147 190 -147 10 0 23 7
30 15 8 9 22 12 41 8 22 -4 29 -2 29 10 0 9 -9 21 -20 27 -24 13 -25 29 -6 56
14 18 15 18 44 -9 17 -16 38 -27 49 -25 20 3 198 198 373 408 162 194 522 547
1010 990 63 57 196 179 295 271 428 397 1055 925 1530 1290 570 438 794 594
1478 1026 543 343 1110 618 1667 809 85 29 156 49 158 44 2 -6 -20 -103 -48
-217 -28 -114 -78 -338 -110 -498 -32 -159 -70 -340 -84 -401 -49 -215 -173
-953 -230 -1374 -14 -102 -41 -300 -60 -440 -67 -491 -89 -692 -131 -1225 -26
-332 -89 -1325 -100 -1570 -3 -77 -12 -214 -20 -305 -8 -91 -26 -329 -40 -530
-14 -201 -30 -383 -35 -405 -6 -22 -17 -213 -25 -425 -17 -436 -51 -800 -75
-800 -14 0 -18 -25 -35 -197 -9 -92 -25 -218 -35 -280 -11 -62 -20 -128 -20
-148 0 -33 2 -35 31 -35 51 0 93 56 189 251 143 290 258 578 430 1079 60 173
122 353 139 400 16 47 50 153 74 235 25 83 75 245 112 360 179 564 420 1433
479 1727 26 124 45 389 56 748 9 306 24 510 65 910 9 80 18 168 20 195 19 192
79 769 95 905 5 47 14 141 20 210 13 147 37 382 85 830 36 331 40 364 74 690
83 789 111 960 191 1170 396 1040 664 2050 781 2948 5 39 13 105 18 145 25
187 64 642 92 1043 14 199 6 2168 -10 2419 -5 94 -15 312 -21 485 -6 173 -15
376 -20 450 -5 74 -14 239 -20 365 -6 127 -17 311 -25 410 -19 232 -42 531
-55 715 -6 80 -17 217 -25 305 -29 306 -56 581 -75 770 -11 105 -22 215 -25
245 -6 67 -80 744 -101 930 -15 137 -73 594 -120 950 -55 425 -167 1185 -190
1288 -4 19 -11 22 -55 22 -36 0 -51 4 -56 16 -7 20 13 34 49 34 15 0 31 7 36
15 13 25 -3 147 -99 720 -159 958 -179 1069 -249 1405 -27 129 -58 287 -69
350 -67 381 -90 502 -166 874 -443 2174 -995 4216 -1483 5486 -65 168 -236
568 -283 662 -26 51 -33 58 -59 58 -20 0 -33 -7 -41 -22z m-11409 -1462 c0
-15 -24 -28 -34 -19 -13 14 -5 33 14 33 11 0 20 -6 20 -14z m-197 -691 c1 -5
-6 -11 -15 -13 -11 -2 -18 3 -18 13 0 17 30 18 33 0z m11947 -291 c110 -692
180 -1164 221 -1484 91 -715 109 -864 129 -1060 11 -113 38 -383 60 -600 85
-844 145 -1603 170 -2155 5 -126 15 -477 20 -780 21 -1169 41 -1506 185 -3135
38 -440 193 -1741 225 -1893 12 -58 12 -67 2 -67 -5 0 -82 93 -173 208 -204
258 -289 360 -449 537 -205 226 -591 589 -710 666 -14 9 -36 27 -50 39 -14 12
-42 31 -63 41 -21 11 -41 27 -44 35 -3 8 -26 26 -52 40 -25 13 -69 37 -96 53
-57 32 -129 52 -107 30 19 -21 15 -29 -30 -50 -40 -18 -41 -19 -11 -15 32 5
43 -6 43 -43 0 -9 10 -27 23 -41 l23 -24 -35 -18 c-35 -18 -36 -18 -61 7 -21
22 -23 27 -10 35 8 5 23 7 33 4 9 -3 17 -1 17 5 0 15 -41 13 -62 -3 -16 -12
-16 -15 -2 -35 15 -21 15 -23 -2 -36 -11 -8 -28 -15 -39 -15 -18 0 -20 -6 -18
-45 3 -45 -13 -64 -19 -22 -2 17 -9 22 -31 20 -15 -1 -27 2 -27 8 0 5 6 9 14
9 8 0 16 6 19 14 4 10 0 12 -13 9 -14 -4 -23 2 -31 21 -11 23 -10 29 9 47 26
23 28 44 7 53 -8 3 -15 1 -15 -4 0 -6 -13 -10 -30 -10 -20 0 -30 5 -30 15 0
17 12 28 65 61 22 14 31 23 20 20 -11 -3 -45 -6 -75 -8 -42 -2 -55 0 -55 11 0
25 105 72 105 48 1 -7 10 -1 20 12 11 13 20 28 20 35 0 8 -2 8 -8 0 -11 -17
-89 -27 -94 -12 -3 7 8 35 24 62 16 27 28 56 26 65 -4 22 -54 26 -83 7 -13 -9
-27 -16 -30 -16 -9 0 -5 38 4 42 5 2 13 17 17 33 6 26 5 28 -8 17 -13 -10 -17
-10 -22 3 -7 20 -33 19 -44 -1 -5 -9 -21 -18 -36 -19 -27 -3 -27 -3 -10 16 9
10 24 19 33 19 9 0 24 7 33 14 16 12 16 14 -8 24 -38 18 -57 15 -104 -19 -27
-20 -46 -27 -52 -21 -6 6 -21 -1 -41 -19 -17 -16 -33 -27 -35 -24 -6 5 37 65
46 64 22 -4 35 6 67 47 47 63 47 83 -2 54 -37 -22 -83 -21 -83 2 0 6 3 8 7 5
6 -7 32 21 33 36 0 14 -18 7 -55 -23 -46 -37 -57 -38 -45 -4 14 35 13 77 -2
72 -6 -2 -16 -17 -21 -34 -21 -65 -54 -65 -49 0 3 29 0 34 -22 38 -29 6 -35
-4 -28 -49 4 -29 2 -33 -17 -33 -21 0 -26 14 -21 68 1 18 -3 22 -27 21 -15 0
-22 -3 -15 -6 23 -9 13 -48 -17 -66 -16 -9 -32 -17 -36 -17 -4 0 -4 24 0 53 7
50 7 51 -11 36 -11 -9 -32 -19 -47 -23 -22 -5 -28 -12 -25 -29 2 -12 9 -21 15
-20 7 2 10 -3 7 -11 -7 -18 -64 -18 -71 0 -3 8 1 33 10 54 20 51 9 59 -25 18
l-27 -33 -1 37 c0 20 -5 40 -12 44 -8 5 -9 -11 -5 -64 7 -74 1 -90 -30 -73
-14 7 -18 22 -18 73 0 66 -12 87 -50 88 -15 0 -16 -3 -7 -12 20 -20 14 -55
-15 -76 l-26 -19 21 -30 c18 -25 19 -33 9 -42 -11 -8 -19 -5 -34 12 -11 12
-23 29 -26 37 -4 12 -6 11 -6 -3 -1 -10 -5 -15 -11 -12 -5 3 -7 20 -5 38 3 18
2 26 -1 19 -13 -28 -35 38 -25 74 7 27 6 34 -4 34 -13 0 -17 -8 -29 -63 -5
-19 -3 -26 4 -22 15 9 34 -39 26 -69 -7 -30 -36 -35 -36 -7 0 11 -5 23 -10 26
-6 4 -10 14 -9 23 1 10 -3 28 -8 43 -6 14 -9 37 -6 52 5 25 3 26 -33 24 l-39
-2 0 -53 c-1 -35 -6 -56 -15 -62 -12 -7 -12 -20 -2 -80 14 -83 15 -130 3 -130
-11 0 -71 -61 -71 -72 0 -4 6 -5 14 -2 8 3 29 -3 48 -12 28 -15 30 -19 13 -21
-79 -13 -120 -44 -93 -71 22 -22 0 -42 -47 -42 -25 0 -45 3 -45 6 0 3 11 20
25 36 32 38 28 52 -14 56 -34 4 -51 26 -33 44 8 8 24 7 57 -2 34 -10 49 -10
57 -2 9 9 4 13 -20 18 -18 4 -38 14 -45 23 -7 10 -20 20 -29 24 -30 11 -22 37
12 37 23 0 30 5 30 19 0 37 -12 51 -41 51 -23 0 -29 5 -29 21 0 12 8 23 18 26
10 2 19 15 20 28 1 17 -2 23 -12 19 -15 -6 -40 29 -29 40 10 9 63 7 63 -3 0
-5 6 -11 13 -14 9 -3 11 11 9 59 l-4 64 -37 0 c-20 0 -42 5 -49 12 -18 18 -14
53 8 73 37 33 16 62 -36 49 -35 -9 -43 21 -13 45 l24 19 -27 11 c-14 5 -29 15
-33 20 -3 6 -14 11 -24 11 -10 0 -28 11 -41 25 -27 29 -51 31 -86 9 -24 -16
-26 -16 -50 7 -13 13 -23 32 -22 43 2 14 -5 21 -24 27 -26 7 -28 5 -29 -24 0
-30 -1 -30 -10 -9 -12 30 -34 52 -52 52 -12 0 -14 -9 -10 -40 5 -36 4 -40 -17
-40 -20 0 -22 4 -17 36 5 27 2 36 -11 40 -9 3 -26 10 -37 15 -21 9 -35 10
-142 13 -36 0 -63 5 -63 11 0 17 -41 47 -56 41 -8 -3 -14 -14 -14 -24 0 -11
-5 -33 -11 -51 -8 -23 -17 -31 -35 -31 -30 0 -31 16 -3 39 16 12 20 23 15 39
-9 28 -39 28 -58 1 -19 -29 -58 -18 -58 16 0 13 5 25 11 27 6 2 -6 11 -25 21
-35 16 -36 16 -36 -2 0 -22 -25 -45 -40 -36 -5 3 -10 16 -10 28 0 12 -14 35
-30 51 -17 16 -30 33 -30 38 0 4 -5 8 -11 8 -7 0 -9 -12 -5 -36 5 -22 3 -41
-5 -50 -19 -23 -29 -16 -29 24 -1 26 -9 47 -28 69 -27 31 -29 32 -57 17 -27
-14 -29 -13 -60 21 -18 19 -40 35 -48 35 -8 0 -18 6 -20 13 -3 6 -6 3 -6 -9
-1 -11 -9 -29 -20 -38 -17 -16 -20 -15 -49 9 -16 14 -33 25 -37 25 -15 0 -95
-62 -95 -74 0 -8 9 -33 20 -57 22 -49 26 -89 9 -89 -7 0 -34 22 -60 49 -27 26
-49 42 -49 35 0 -22 -17 -17 -52 15 l-32 28 14 57 c8 35 18 56 27 56 8 0 11 5
8 10 -11 17 -43 11 -50 -10 -3 -11 -4 -24 -1 -29 8 -13 -19 -128 -34 -147 -7
-8 -19 -14 -26 -14 -8 0 -14 -5 -14 -11 0 -5 5 -7 10 -4 6 4 10 -12 10 -39 0
-38 -3 -46 -19 -46 -24 0 -39 19 -47 57 -5 23 1 38 30 76 22 29 36 58 36 76 0
17 5 33 10 36 24 15 -4 27 -47 20 -44 -6 -47 -5 -88 35 l-42 41 -41 -45 c-23
-25 -42 -54 -42 -63 0 -10 -5 -25 -10 -33 -7 -11 -15 -2 -34 41 -13 31 -28 72
-31 92 -10 51 -42 76 -121 93 -153 32 -213 17 -534 -134 -20 -9 -65 -17 -105
-18 -38 -1 -91 -8 -117 -15 -45 -12 -76 -6 -50 10 6 4 14 21 18 38 5 25 2 31
-15 36 -11 3 -25 17 -31 31 -8 23 -15 26 -60 26 -53 0 -61 10 -40 51 7 12 7
19 1 19 -5 0 -15 -16 -22 -35 -9 -24 -21 -38 -38 -42 -14 -3 -33 -16 -43 -27
-15 -18 -19 -19 -28 -6 -8 13 -10 12 -10 -5 -1 -12 -19 -34 -45 -53 -64 -47
-75 -49 -75 -19 0 14 4 29 10 32 5 3 14 25 21 48 6 23 24 59 40 80 l30 37 -25
0 c-29 0 -66 -42 -60 -68 3 -9 -2 -34 -11 -55 -17 -42 -26 -48 -18 -14 4 18 3
19 -7 7 -9 -12 -10 -7 -5 25 4 29 3 36 -4 25 -9 -13 -11 -12 -12 5 -1 11 -1
23 0 28 0 4 -3 7 -7 7 -4 0 -15 -19 -23 -42 -16 -44 -44 -61 -55 -34 -3 9 3
35 15 58 20 41 20 88 0 88 -5 0 -9 7 -9 15 0 14 -12 19 -32 16 -7 -1 -10 15
-7 36 2 13 -33 25 -43 15 -7 -7 -2 -18 16 -33 14 -12 26 -30 26 -40 0 -12 6
-16 19 -12 35 9 37 -34 4 -69 -15 -17 -21 -27 -13 -23 12 6 13 5 3 -6 -7 -7
-13 -23 -13 -36 0 -13 -7 -26 -14 -29 -19 -7 -76 26 -76 43 0 7 -4 13 -9 13
-5 0 -11 10 -13 22 -2 12 -8 23 -14 25 -8 3 -9 -11 -4 -44 9 -57 7 -63 -26
-63 -38 0 -55 21 -38 45 19 26 18 30 -10 43 -30 13 -53 -8 -58 -53 -2 -19 -9
-30 -18 -30 -12 0 -14 10 -12 45 2 24 8 47 13 51 6 3 10 9 10 13 -3 21 1 27
14 22 21 -8 95 23 95 39 0 8 -9 17 -20 20 -11 3 -20 13 -20 21 0 8 -4 14 -10
14 -5 0 -10 -9 -10 -19 0 -11 -6 -23 -12 -28 -21 -13 -98 -11 -98 3 0 14 22
24 52 24 31 0 78 53 78 90 0 24 4 31 17 28 12 -2 18 -13 18 -38 1 -47 12 -65
30 -50 8 6 11 18 9 25 -12 31 45 80 62 54 3 -5 20 3 37 17 l32 27 5 -54 c5
-50 7 -54 33 -57 17 -2 27 1 27 10 0 7 13 29 29 48 16 19 32 54 36 77 6 38 8
41 26 30 22 -13 26 -29 6 -21 -11 4 -13 -7 -9 -51 3 -36 1 -55 -6 -55 -6 0 -9
-7 -6 -15 7 -18 -7 -20 -24 -3 -6 6 -14 9 -17 7 -9 -10 43 -32 59 -26 9 4 16
15 16 25 0 25 24 45 47 40 13 -2 18 -13 19 -38 0 -42 20 -51 34 -15 12 31 13
45 3 44 -19 -3 -33 2 -33 12 0 6 8 8 18 5 14 -5 17 -1 17 20 -1 15 -9 31 -19
36 -13 7 -19 4 -27 -20 -8 -24 -45 -50 -56 -39 -5 5 63 111 73 114 20 7 62
-71 57 -101 -5 -26 -4 -27 14 -17 11 5 24 7 28 3 5 -4 5 2 2 13 -7 19 -6 19 7
3 18 -25 26 -22 26 8 0 16 4 23 11 18 8 -4 9 1 4 16 -6 18 -3 21 12 18 14 -3
18 -12 17 -46 -2 -44 1 -48 26 -32 9 6 20 5 30 -3 13 -10 13 -10 3 4 -12 15
-7 59 7 59 11 0 27 51 22 73 -5 25 -27 21 -56 -10 l-25 -27 -13 30 c-7 16 -17
32 -22 35 -11 9 0 39 14 39 5 0 10 -9 10 -19 0 -18 3 -19 31 -9 17 6 34 21 39
34 13 32 28 30 35 -3 4 -16 11 -36 16 -46 11 -19 10 -117 -1 -117 -3 0 -11 5
-18 12 -8 8 -12 8 -12 1 0 -6 7 -16 15 -23 12 -10 18 -10 30 0 12 10 13 15 3
21 -16 10 55 4 73 -6 8 -4 1 6 -14 22 -33 35 -32 66 0 71 12 2 29 14 37 28 17
24 9 33 -11 13 -20 -20 -65 -6 -83 26 l-17 31 34 -4 c18 -2 40 1 48 8 8 7 22
9 31 6 12 -4 15 -2 11 9 -4 8 -2 17 3 20 6 4 10 11 10 17 0 10 -34 8 -108 -8
-26 -5 -36 -2 -47 12 -18 25 -10 34 25 27 20 -4 39 1 57 13 16 10 37 23 47 29
42 22 43 42 3 83 -36 36 -37 39 -20 54 10 9 28 19 41 22 12 4 22 12 22 18 0 6
-9 8 -22 4 -52 -15 -135 -18 -159 -6 -24 13 -24 13 16 24 45 12 125 57 125 70
0 4 -10 6 -22 3 -12 -4 -28 -1 -35 5 -17 13 -17 48 0 49 13 1 -39 16 -64 18
-8 0 -35 -15 -58 -36 -34 -29 -45 -33 -52 -22 -12 19 -11 25 4 41 8 8 11 21 7
33 -5 13 -9 15 -14 7 -9 -15 -26 -6 -26 12 0 14 34 29 58 27 6 -1 12 7 12 19
0 25 -1 25 -51 0 -22 -12 -44 -18 -50 -14 -6 3 -22 7 -37 9 -14 1 -28 8 -30
14 -2 6 -13 11 -23 11 -11 0 -18 -4 -14 -9 3 -5 1 -12 -4 -16 -6 -3 -13 11
-17 30 -5 29 -3 39 12 50 16 12 17 14 3 15 -20 0 -89 -69 -89 -88 0 -8 -6 -12
-15 -8 -8 3 -19 -2 -24 -11 -8 -14 -13 -15 -35 -5 -14 6 -28 22 -32 36 -4 16
-11 23 -20 19 -10 -4 -14 3 -14 21 0 17 -7 29 -17 32 -41 13 -68 34 -67 54 0
13 -6 20 -18 20 -10 0 -18 -6 -18 -13 0 -16 52 -67 68 -67 7 0 12 -15 12 -35
0 -37 -15 -46 -39 -22 -10 10 -11 9 -7 -3 3 -8 2 -21 -3 -29 -15 -24 -44 5
-30 30 6 13 6 19 0 19 -6 0 -8 6 -6 13 4 9 -9 12 -49 10 -87 -2 -96 -8 -96
-58 0 -36 -4 -44 -22 -49 -38 -10 -60 -7 -80 10 -16 16 -19 15 -38 -7 -20 -24
-20 -24 -35 -5 -21 27 -19 47 5 53 25 7 27 43 2 43 -10 0 -23 5 -30 12 -17 17
-15 -3 3 -28 16 -23 11 -34 -16 -34 -10 0 -23 -15 -33 -40 -20 -52 -35 -57
-88 -32 -24 12 -49 22 -57 24 -41 9 -74 78 -37 78 8 0 24 13 35 29 12 16 32
32 46 35 15 4 30 17 35 31 13 34 30 31 30 -4 0 -16 6 -31 15 -35 22 -8 18 -36
-5 -36 -11 0 -20 6 -20 14 0 8 -5 18 -11 21 -6 4 -9 1 -7 -7 2 -8 -10 -26 -26
-39 l-28 -25 24 -29 c22 -25 27 -27 40 -15 9 8 25 21 36 29 11 8 18 21 15 31
-3 12 3 23 17 30 16 8 20 18 16 33 -7 31 9 56 26 39 10 -10 10 -17 0 -32 -15
-25 -15 -27 2 -33 10 -4 13 -1 9 9 -4 11 4 14 36 14 31 0 48 7 74 30 36 31 45
29 60 -13 4 -12 3 -16 -4 -11 -6 3 -23 -3 -39 -14 -17 -13 -36 -19 -49 -15
-48 12 -9 -49 49 -76 22 -11 23 -11 8 2 -19 15 -25 32 -8 22 6 -4 10 7 10 26
0 26 3 31 20 26 11 -3 20 -2 20 3 0 9 46 28 80 32 17 2 26 10 28 26 2 13 11
26 20 29 9 4 20 11 24 16 8 13 113 -36 121 -57 10 -26 21 -19 70 42 46 57 46
57 97 55 62 -3 64 14 4 37 -53 20 -88 46 -75 55 6 3 16 3 22 -1 7 -4 34 -8 62
-8 32 -1 52 -7 55 -15 2 -7 15 -23 28 -34 16 -13 22 -27 18 -39 -4 -15 0 -18
31 -18 34 0 37 2 31 23 -8 32 25 33 55 1 28 -29 39 -30 73 -3 17 13 26 30 26
49 0 19 8 33 26 45 34 22 21 34 -42 43 -63 9 -64 30 -2 59 46 22 65 39 54 50
-3 3 -12 0 -21 -7 -17 -14 -47 -10 -123 18 l-54 19 33 12 c39 13 59 14 39 1
-25 -16 35 -12 77 5 20 9 45 13 56 9 16 -5 18 -3 12 18 -10 33 -11 33 -41 9
-14 -11 -30 -18 -35 -16 -15 10 8 50 30 53 11 2 26 13 33 25 6 12 15 25 20 28
13 9 -136 20 -171 13 -23 -5 -32 -2 -40 15 -20 36 16 44 157 37 232 -11 459
-43 537 -75 145 -60 345 -93 665 -111 351 -19 570 -40 852 -80 536 -77 768
-134 1510 -369 141 -44 259 -81 261 -81 3 0 1 17 -3 38 -15 72 -19 163 -7 159
15 -5 26 -64 26 -143 l1 -60 214 -82 c279 -106 506 -183 529 -180 28 4 96 207
136 403 43 215 181 1169 256 1775 14 113 37 286 50 385 72 527 131 1078 185
1735 52 633 60 737 80 1065 11 176 29 446 40 600 21 295 56 1062 67 1473 3
134 10 237 14 230 4 -8 27 -131 49 -274z m-11424 -1312 c1 -581 15 -939 69
-1717 51 -726 137 -1528 221 -2060 45 -288 111 -675 164 -965 32 -179 82 -458
110 -620 42 -239 90 -472 145 -708 4 -17 10 -22 23 -17 48 18 486 126 502 123
16 -2 4 -23 -66 -113 -48 -60 -129 -171 -182 -245 -166 -234 -347 -472 -447
-589 -17 -20 -69 -90 -115 -156 -163 -233 -625 -851 -740 -990 -36 -44 -105
-131 -154 -192 -101 -131 -144 -165 -132 -105 9 43 24 252 41 557 9 154 18
291 20 305 3 14 12 129 20 255 8 127 19 282 25 345 5 63 12 167 15 230 4 63
13 194 21 290 38 457 50 839 74 2225 6 336 15 702 20 815 27 584 33 700 55
995 14 176 27 354 30 395 3 41 12 136 20 210 8 74 16 164 19 200 11 129 48
502 81 820 19 179 37 348 40 375 20 197 79 641 95 721 11 53 20 98 20 100 0 2
1 4 3 4 1 0 2 -219 3 -488z m-726 4 c0 -16 -28 -42 -36 -33 -3 3 -3 15 1 26 7
23 35 29 35 7z m-30 -235 c0 -6 -4 -13 -10 -16 -5 -3 -10 1 -10 9 0 9 5 16 10
16 6 0 10 -4 10 -9z m13365 -1272 c9 -28 -13 -50 -42 -43 -44 12 -38 64 7 64
20 0 31 -6 35 -21z m-473 -11 c-9 -9 -15 -9 -24 0 -9 9 -7 12 12 12 19 0 21
-3 12 -12z m-13339 -160 c35 -42 17 -61 -70 -72 -65 -8 -123 12 -123 44 0 25
24 36 52 23 17 -7 26 -4 45 15 28 28 67 24 96 -10z m-125 -229 c-2 -6 -8 -10
-13 -10 -5 0 -11 4 -13 10 -2 6 4 11 13 11 9 0 15 -5 13 -11z m-210 -538 c4
-22 -13 -51 -29 -51 -11 0 -12 63 -2 74 12 12 28 0 31 -23z m283 -71 c-5 -42
-21 -61 -44 -58 -32 4 -35 51 -5 72 32 23 54 16 49 -14z m52 -11 c0 -19 -4
-45 -7 -59 -3 -14 -8 -42 -11 -62 -4 -24 -11 -38 -20 -38 -18 0 -20 47 -4 87
7 15 11 43 10 60 -2 18 1 37 4 43 13 21 30 3 28 -31z m860 -6 c-4 -10 -39 -63
-78 -118 -124 -174 -232 -352 -342 -565 -158 -305 -225 -519 -267 -844 -9 -66
-19 -122 -22 -125 -8 -8 5 161 22 288 29 215 90 404 205 634 109 219 318 554
440 708 32 41 53 51 42 22z m-1219 -50 c-8 -86 -13 -103 -29 -103 -19 0 -19
11 0 57 8 19 15 48 15 63 0 24 7 40 17 40 2 0 1 -26 -3 -57z m14664 -1133 c-4
-34 -29 -32 -41 3 -6 20 -5 32 4 43 12 14 14 14 26 -3 8 -10 13 -29 11 -43z
m-14843 -40 c0 -8 -10 -16 -22 -18 -25 -4 -26 -2 -17 23 8 19 39 16 39 -5z
m6675 -1323 c0 -17 -20 -37 -37 -37 -16 0 -17 22 -1 38 16 16 38 15 38 -1z
m980 -114 c0 -10 -7 -27 -15 -37 -8 -10 -12 -23 -9 -27 3 -5 -10 -9 -28 -9
-18 0 -42 -7 -52 -15 -12 -9 -42 -15 -78 -15 -64 0 -115 -17 -147 -49 -30 -30
-27 -59 6 -72 27 -10 43 -26 43 -43 0 -19 -76 7 -106 36 -17 17 -47 36 -65 42
-27 9 -35 17 -37 40 -6 54 37 56 64 3 l16 -30 43 46 c28 31 51 47 67 47 13 0
29 5 34 10 6 6 39 13 74 16 35 3 72 10 81 15 10 5 29 9 44 9 18 0 28 7 35 25
11 29 30 34 30 8z m-642 -126 c3 -14 -4 -17 -32 -17 -25 0 -36 5 -36 14 0 28
63 31 68 3z m97 0 c0 -26 -20 -25 -23 2 -3 16 1 22 10 19 7 -3 13 -12 13 -21z
m330 -27 c-11 -21 -23 -30 -40 -30 -18 0 -23 -4 -19 -15 8 -21 -2 -19 -25 4
-19 19 -19 20 7 38 28 18 57 30 80 32 9 1 9 -6 -3 -29z m100 -4 c40 -18 55
-30 55 -45 0 -30 -21 -37 -39 -13 -9 11 -37 26 -63 33 -42 10 -46 13 -37 30
13 24 17 24 84 -5z m7205 -80 c-7 -9 -17 -16 -22 -16 -16 0 -21 30 -7 46 11
13 14 13 27 0 13 -12 13 -18 2 -30z m-8362 2 c-4 -31 -52 -48 -74 -26 -14 14
-14 17 1 32 9 9 30 16 46 16 26 0 30 -3 27 -22z m-192 -11 c1 -1 4 -23 7 -49
7 -53 -2 -61 -27 -23 -12 18 -25 25 -50 25 -37 0 -61 21 -52 46 5 14 16 15 64
9 31 -4 57 -8 58 -8z m84 -18 c0 -12 -7 -19 -20 -19 -11 0 -20 2 -20 4 0 2 -3
12 -7 22 -4 11 -3 15 5 10 6 -3 13 -2 17 4 9 15 25 2 25 -21z m1280 1 c0 -24
-5 -29 -34 -34 -25 -5 -46 0 -85 20 -28 15 -51 31 -51 36 0 5 38 8 85 7 l85
-1 0 -28z m-274 -25 c-3 -9 -11 -13 -16 -10 -6 4 -17 1 -25 -5 -8 -7 -20 -10
-27 -7 -9 4 -8 6 3 6 9 1 24 13 34 27 18 28 43 19 31 -11z m339 12 c10 -8 15
-19 11 -25 -11 -18 -53 -14 -60 4 -13 33 16 45 49 21z m36 -84 c5 -15 3 -23
-7 -27 -11 -4 -14 -1 -12 12 3 11 -6 21 -27 29 l-30 12 34 -2 c24 -2 36 -9 42
-24z m-584 1 c2 -6 -8 -14 -22 -16 -24 -5 -34 9 -18 26 10 10 36 3 40 -10z
m248 -4 c0 -10 -10 -15 -31 -15 -37 0 -60 -17 -68 -50 -8 -30 -26 -33 -26 -4
0 25 18 60 39 76 22 18 86 12 86 -7z m212 9 c-14 -8 -22 -8 -30 0 -8 8 -3 11
19 11 25 -1 27 -2 11 -11z m-572 -9 c-3 -5 -13 -10 -21 -10 -8 0 -14 5 -14 10
0 6 9 10 21 10 11 0 17 -4 14 -10z m-85 -46 c0 -16 -16 -19 -25 -4 -8 13 4 32
16 25 5 -4 9 -13 9 -21z m-555 5 c4 -6 5 -12 3 -14 -7 -7 -48 7 -48 16 0 13
37 11 45 -2z m712 -43 c-2 -6 -20 -12 -40 -14 -31 -3 -37 0 -37 17 0 11 10 27
23 36 21 15 23 14 40 -6 10 -12 16 -27 14 -33z m-556 17 c-7 -27 -31 -45 -31
-23 0 17 19 50 29 50 5 0 6 -12 2 -27z m367 -6 c-2 -19 -7 -23 -25 -19 -25 5
-31 27 -10 35 26 11 37 6 35 -16z m-285 -25 c-3 -26 -50 -82 -70 -82 -7 0 -23
-21 -34 -46 -26 -55 -38 -61 -91 -43 -46 15 -55 30 -40 64 13 29 3 38 -33 29
-31 -8 -32 -31 -5 -84 20 -39 20 -40 1 -40 -10 0 -25 10 -33 22 l-15 23 -40
-28 c-45 -31 -76 -28 -71 7 2 16 12 22 43 26 27 3 41 10 43 23 3 12 -3 17 -20
17 -30 0 -118 -41 -118 -56 0 -20 -41 -64 -60 -64 -19 0 -80 77 -80 100 0 12
50 34 58 25 3 -2 11 0 19 6 17 15 16 -1 -2 -25 -17 -23 -20 -52 -5 -61 13 -8
39 35 42 69 2 23 6 27 30 24 29 -3 83 36 73 52 -8 12 -3 12 29 0 19 -7 26 -17
26 -36 0 -38 21 -25 48 30 24 46 24 47 42 26 10 -12 28 -19 44 -18 25 2 30 9
27 36 -3 19 10 14 41 -15 l28 -27 -38 -21 c-42 -23 -47 -44 -14 -56 17 -7 22
-5 22 9 0 26 29 62 49 62 19 0 54 34 64 63 10 26 43 17 40 -11z m-373 8 c0 -5
-5 -10 -11 -10 -5 0 -7 5 -4 10 3 6 8 10 11 10 2 0 4 -4 4 -10z m-1235 -110
c0 -17 -34 -24 -54 -11 -7 5 -10 14 -6 20 10 17 60 9 60 -9z m2093 -42 c-2
-22 -9 -34 -20 -36 -15 -3 -18 4 -18 32 0 30 4 36 21 36 17 0 20 -5 17 -32z
m132 -22 c0 -20 -25 -37 -44 -30 -16 6 -21 25 -9 37 12 13 53 7 53 -7z m228
-8 c-7 -19 -38 -22 -38 -4 0 10 9 16 21 16 12 0 19 -5 17 -12z m92 -14 c0 -17
-26 -19 -36 -3 -7 12 15 31 28 23 4 -3 8 -12 8 -20z m50 -64 c0 -25 -29 -38
-41 -19 -15 24 -10 35 16 37 19 1 25 -3 25 -18z m150 -5 c0 -2 -10 -9 -22 -15
-22 -11 -22 -10 -4 4 21 17 26 19 26 11z m-222 -42 c21 -29 10 -48 -27 -46
-41 2 -45 6 -29 32 11 18 10 23 -7 35 -18 14 -17 15 15 6 19 -6 41 -18 48 -27z
m216 -2 c4 -5 -3 -7 -14 -4 -23 6 -26 13 -6 13 8 0 17 -4 20 -9z m-125 -56
c16 -8 31 -21 34 -29 10 -26 -13 -29 -37 -4 -12 12 -31 28 -42 35 -18 11 -18
12 -1 12 10 1 31 -6 46 -14z m-1094 -5 c10 -16 -14 -40 -41 -40 -31 0 -41 20
-19 37 22 16 51 17 60 3z m912 -43 c2 -2 1 -12 -3 -21 -5 -13 -15 -15 -48 -10
-82 13 -86 50 -3 41 27 -4 51 -8 54 -10z m-7567 -66 c0 -22 -25 -45 -40 -36
-13 8 -13 28 2 43 18 18 38 14 38 -7z m7780 9 c0 -5 -2 -10 -4 -10 -3 0 -8 5
-11 10 -3 6 -1 10 4 10 6 0 11 -4 11 -10z m-2645 -9 c7 -13 -32 -34 -46 -26
-7 5 -6 11 2 21 13 16 35 18 44 5z m2836 -25 c7 -14 17 -22 25 -19 26 10 14
-5 -21 -26 l-35 -20 0 44 c0 49 14 59 31 21z m-8148 7 c9 -9 -12 -33 -29 -33
-8 0 -14 9 -14 20 0 19 28 28 43 13z m7822 -46 c-9 -21 -36 -30 -49 -17 -8 8
-4 16 14 30 27 20 45 14 35 -13z m235 -12 c7 -9 10 -18 7 -21 -10 -11 -37 5
-37 21 0 19 14 19 30 0z m-3337 -29 c7 -18 -24 -46 -51 -46 -25 0 -34 12 -26
34 10 25 69 35 77 12z m2743 -11 c5 -21 10 -23 36 -18 24 5 30 3 26 -8 -7 -22
-40 -21 -82 3 -51 30 -57 48 -17 48 24 0 32 -5 37 -25z m-1836 -34 c0 -5 -6
-11 -12 -14 -18 -6 -39 3 -32 14 7 12 44 12 44 0z m926 -6 c3 -8 2 -27 -4 -42
-9 -27 -9 -27 -13 15 -4 41 6 57 17 27z m1441 -8 c-3 -9 3 -13 17 -13 33 1 26
-28 -8 -32 -18 -2 -26 0 -21 7 3 6 -1 11 -10 11 -13 0 -14 4 -5 20 12 22 35
28 27 7z m-1522 -17 c9 -15 -16 -43 -27 -32 -10 10 0 42 12 42 5 0 12 -5 15
-10z m1223 -39 c18 -36 18 -38 1 -34 -26 7 -52 40 -46 58 10 25 25 17 45 -24z
m-2430 7 c21 -21 13 -50 -23 -85 -28 -27 -42 -34 -60 -29 -31 8 -40 38 -21 75
25 47 76 67 104 39z m2644 -7 c-1 -7 2 -10 7 -7 17 11 22 -11 6 -24 -18 -15
-20 -14 -29 23 -5 22 -4 28 6 24 7 -2 12 -10 10 -16z m-1262 -16 c0 -8 -7 -15
-15 -15 -16 0 -20 12 -8 23 11 12 23 8 23 -8z m1180 0 c6 -8 8 -20 4 -26 -4
-7 -3 -9 2 -6 14 8 38 -9 30 -22 -13 -21 -37 -11 -47 19 -6 17 -15 30 -20 30
-5 0 -9 5 -9 10 0 15 26 12 40 -5z m-163 -12 c-4 -3 0 -14 8 -23 13 -14 12
-16 -3 -16 -9 -1 -24 -4 -33 -8 -30 -13 -31 22 -1 38 30 17 39 19 29 9z
m-1172 -23 c-3 -4 -15 -6 -27 -2 -21 5 -21 6 -2 12 21 8 37 3 29 -10z m1255
-16 c0 -8 -7 -14 -15 -14 -15 0 -21 21 -9 33 10 9 24 -2 24 -19z m159 -76 c-5
-9 -19 -24 -31 -32 -20 -14 -23 -14 -31 0 -5 8 -6 21 -3 29 3 8 0 16 -7 19 -7
3 -3 4 9 1 13 -3 28 2 39 16 18 19 20 19 26 2 4 -10 3 -26 -2 -35z m-209 11
c0 -5 -4 -9 -10 -9 -5 0 -10 7 -10 16 0 8 5 12 10 9 6 -3 10 -10 10 -16z m293
-24 c-3 -8 -9 -15 -14 -15 -10 0 -12 24 -3 33 11 11 24 -3 17 -18z m-1903 -10
c0 -9 -9 -15 -25 -15 -24 0 -32 10 -18 23 12 13 43 7 43 -8z m-825 -4 c3 -5 1
-12 -5 -16 -5 -3 -10 1 -10 9 0 18 6 21 15 7z m2329 -17 c11 -28 7 -42 -21
-71 l-26 -28 6 25 c4 14 7 40 7 58 0 34 23 45 34 16z m-1904 -8 c0 -16 -27
-29 -42 -20 -7 5 -4 12 7 21 24 17 35 17 35 -1z m-460 -61 c0 -8 -4 -15 -10
-15 -5 0 -10 7 -10 15 0 8 5 15 10 15 6 0 10 -7 10 -15z m2048 -12 c-2 -11 2
-17 10 -15 7 1 4 -10 -9 -28 -30 -40 -39 -38 -28 8 5 20 9 40 9 45 0 4 5 7 10
7 6 0 10 -8 8 -17z m-1893 -32 c0 -16 -31 -38 -40 -29 -4 4 -4 16 0 28 7 23
40 24 40 1z m1798 -3 c5 -17 -3 -48 -13 -48 -5 0 -8 14 -8 30 1 30 13 40 21
18z m-1915 -44 c29 -46 28 -57 -9 -88 -54 -46 -99 -46 -99 -1 0 24 17 35 55
35 28 0 42 17 26 33 -12 12 -15 57 -3 57 4 -1 17 -17 30 -36z m1772 -31 c0
-25 -30 -11 -48 23 -6 12 -8 24 -5 28 9 8 53 -34 53 -51z m68 30 c-2 -23 -9
-29 -33 -31 l-30 -3 24 19 c13 11 21 24 17 31 -4 6 -1 11 9 11 12 0 15 -7 13
-27z m-793 -13 c3 -6 -1 -13 -10 -16 -19 -8 -30 0 -20 15 8 14 22 14 30 1z
m609 -6 c16 -6 23 -44 8 -44 -12 0 -32 23 -32 37 0 15 2 15 24 7z m-71 -44
c26 -30 30 -61 9 -68 -9 -3 -52 74 -52 94 0 13 22 0 43 -26z m244 -12 c-3 -8
-6 -5 -6 6 -1 11 2 17 5 13 3 -3 4 -12 1 -19z m83 8 c0 -18 -16 -29 -30 -21
-6 4 -5 11 3 20 16 18 27 19 27 1z m-380 -68 c0 -4 -9 -8 -20 -8 -11 0 -34
-13 -51 -30 -55 -52 -68 -10 -18 60 l31 42 29 -28 c16 -15 29 -31 29 -36z
m155 52 c-3 -5 0 -7 8 -4 8 3 18 1 22 -5 4 -7 -3 -11 -18 -11 -14 0 -27 7 -31
15 -3 9 0 15 10 15 8 0 12 -4 9 -10z m105 -25 c-7 -9 -15 -13 -19 -10 -3 3 1
10 9 15 21 14 24 12 10 -5z m-1140 -20 c0 -8 -7 -15 -15 -15 -16 0 -20 12 -8
23 11 12 23 8 23 -8z m1210 -49 c0 -25 -100 -32 -108 -8 -3 11 22 18 76 21 22
1 32 -4 32 -13z m-132 -7 c-2 -6 -8 -10 -13 -10 -5 0 -11 4 -13 10 -2 6 4 11
13 11 9 0 15 -5 13 -11z m-4145 -19 c-23 -23 -173 -32 -173 -11 0 16 13 18 96
19 47 0 82 -4 77 -8z m227 -10 c0 -6 -11 -15 -25 -22 -19 -8 -28 -8 -40 2 -13
11 -13 15 -3 21 18 12 68 11 68 -1z m4127 -22 c29 -31 33 -61 9 -66 -16 -3
-18 1 -14 26 4 26 0 32 -19 37 -13 3 -23 10 -23 15 0 18 26 11 47 -12z m-2455
-28 c9 -43 4 -61 -17 -54 -21 8 -48 62 -41 81 3 8 15 13 28 11 16 -2 24 -12
30 -38z m2303 18 c31 -14 32 -26 3 -37 -43 -16 -91 18 -57 40 18 11 23 11 54
-3z m100 -34 c0 -20 6 -31 20 -36 13 -4 6 -6 -21 -7 -47 -1 -71 18 -59 46 5
10 8 21 7 25 -1 4 11 5 26 4 22 -3 27 -8 27 -32z m2633 -26 c20 -20 15 -58 -7
-58 -11 0 -21 -6 -23 -12 -3 -7 -5 9 -6 35 -2 48 10 61 36 35z m-118 -40 c0
-12 8 -18 25 -18 18 0 25 -5 25 -20 0 -11 -6 -20 -13 -20 -21 0 -69 51 -63 67
3 8 6 20 6 26 0 19 20 -16 20 -35z m-2577 26 c7 -8 -14 -54 -25 -54 -15 0 -21
30 -8 45 13 16 23 19 33 9z m83 -46 c3 -5 -13 -26 -35 -47 -36 -33 -40 -42
-35 -70 9 -44 -8 -38 -28 10 -18 41 -17 42 8 72 14 16 23 35 21 41 -6 14 60 9
69 -6z m8103 -328 c11 -124 30 -369 41 -545 11 -176 29 -453 40 -615 10 -162
24 -380 30 -485 6 -104 15 -246 20 -315 45 -588 75 -1049 90 -1360 10 -214 43
-776 60 -1020 5 -85 14 -256 20 -380 5 -124 12 -263 14 -310 4 -60 3 -75 -3
-50 -5 19 -14 121 -20 225 -6 105 -18 307 -26 450 -8 143 -19 314 -25 380 -5
66 -17 230 -25 365 -40 656 -75 1187 -101 1520 -8 107 -19 274 -24 370 -5 96
-16 267 -25 380 -8 113 -24 351 -35 530 -11 179 -29 462 -40 630 -38 598 -34
706 9 230z m-7231 334 c24 -7 31 -34 8 -34 -8 0 -24 9 -37 20 -25 20 -15 25
29 14z m-438 -29 c0 -14 -4 -25 -8 -25 -4 0 -9 11 -10 25 -1 14 3 25 8 25 6 0
10 -11 10 -25z m2033 -38 c26 -35 52 -95 45 -102 -15 -15 -108 109 -108 145 0
18 37 -7 63 -43z m174 -4 c-4 -17 -4 -17 -12 0 -4 9 -4 25 0 35 8 16 8 16 12
0 3 -10 3 -26 0 -35z m101 20 c-2 -23 -8 -28 -30 -29 -16 -1 -28 3 -28 8 0 22
22 48 41 48 16 0 20 -5 17 -27z m-2372 -37 c-1 -19 -4 -32 -8 -29 -11 6 -10
63 0 63 5 0 8 -15 8 -34z m-2789 9 c2 -6 -3 -19 -11 -30 -13 -18 -14 -18 -25
3 -7 13 -9 27 -6 33 8 12 37 8 42 -6z m2883 -10 c6 -8 9 -23 5 -35 -5 -17 -13
-21 -43 -18 -19 2 -37 9 -40 15 -6 19 28 29 39 12 8 -12 10 -12 8 1 -4 41 8
52 31 25z m-70 1 c0 -3 -4 -8 -10 -11 -5 -3 -10 -1 -10 4 0 6 5 11 10 11 6 0
10 -2 10 -4z m1509 -41 c16 -53 10 -75 -20 -75 -19 0 -21 4 -15 38 3 20 6 47
6 60 0 36 15 25 29 -23z m-1743 8 c-10 -10 -19 5 -10 18 6 11 8 11 12 0 2 -7
1 -15 -2 -18z m-2764 -25 c10 -20 22 -39 28 -43 16 -10 38 12 45 46 8 34 35
39 35 7 0 -36 16 -53 47 -50 48 5 100 -23 108 -59 8 -36 -1 -92 -22 -132 -13
-26 -19 -29 -51 -24 -21 3 -50 10 -66 16 -23 9 -27 16 -24 36 5 24 4 25 -54
25 -68 0 -98 12 -98 40 0 32 -17 32 -29 0 -12 -37 -45 -40 -85 -9 -30 24 -79
20 -123 -8 -22 -15 -26 -15 -51 4 -26 19 -43 62 -25 64 4 0 35 2 68 5 88 6
103 11 120 44 20 39 62 42 71 4 5 -18 12 -24 28 -22 16 2 22 11 24 38 6 72 25
79 54 18z m5550 -50 c-6 -6 -15 -7 -21 -4 -17 11 -13 34 7 45 13 8 18 6 20
-11 2 -11 -1 -25 -6 -30z m363 -23 c0 -27 -41 -32 -66 -9 -19 17 -19 19 -2 26
33 13 68 5 68 -17z m-5 -65 c0 -21 -27 -40 -47 -33 -20 7 -15 29 10 41 32 15
37 14 37 -8z m-3037 -4 c7 -18 -1 -26 -25 -26 -18 0 -25 20 -11 33 11 12 31 8
36 -7z m-7005 -42 c-1 -44 -21 -80 -39 -69 -14 9 -11 31 6 45 9 7 14 19 11 27
-6 16 3 43 15 43 4 0 8 -21 7 -46z m9046 10 c9 -3 16 -15 16 -25 0 -14 -7 -19
-25 -19 -29 0 -45 28 -24 41 17 11 14 10 33 3z m1484 -17 c4 -20 -25 -34 -40
-19 -15 15 -1 44 19 40 10 -2 19 -11 21 -21z m-11053 -23 c0 -19 -6 -30 -17
-32 -14 -3 -18 3 -18 26 0 16 3 32 7 36 14 13 28 -1 28 -30z m7973 -16 c-5
-15 -48 -24 -48 -10 0 14 12 22 33 22 10 0 17 -5 15 -12z m-3618 -58 c0 -16
-4 -30 -10 -30 -11 0 -14 43 -3 53 11 12 13 8 13 -23z m492 -8 c57 -11 33 -28
-45 -34 -69 -6 -88 2 -67 27 13 16 52 18 112 7z m-1221 -54 c1 -7 0 -44 -1
-83 -3 -107 -20 -105 -20 3 0 55 4 92 10 92 6 0 10 -6 11 -12z m5499 -24 c0
-8 -7 -14 -15 -14 -17 0 -18 2 -9 24 7 18 24 12 24 -10z m-4285 -30 c14 -15
25 -32 25 -38 0 -8 -2 -8 -8 0 -4 6 -24 14 -44 18 -39 7 -53 19 -43 36 11 18
46 10 70 -16z m6420 -66 c-10 -44 -13 -48 -30 -41 -31 11 -11 73 23 73 10 0
12 -8 7 -32z m-6541 10 c3 3 6 1 6 -5 0 -13 107 -16 115 -3 3 6 13 10 21 10
11 0 14 -9 12 -37 -2 -30 -9 -41 -30 -51 -32 -15 -37 -32 -9 -32 45 0 51 -9
51 -77 l0 -66 -42 7 c-24 3 -69 10 -100 16 -32 5 -83 14 -113 18 -60 9 -86 25
-69 42 7 7 21 7 42 -1 18 -6 39 -9 47 -5 8 3 17 1 20 -4 11 -17 44 -11 57 10
15 24 31 25 48 5 19 -23 40 -18 40 9 0 14 -10 32 -22 40 -12 9 -27 30 -33 48
-8 26 -15 33 -35 31 -37 -2 -90 17 -90 32 0 18 19 23 52 14 14 -4 29 -5 32 -1z
m-3829 -28 c0 -7 -6 -15 -12 -17 -8 -3 -13 4 -13 17 0 13 5 20 13 18 6 -3 12
-11 12 -18z m10598 -32 c9 -46 -5 -102 -26 -106 -9 -2 -26 3 -37 11 -19 13
-20 16 -5 31 9 9 28 16 42 16 33 0 25 23 -11 30 l-28 5 22 28 c26 32 36 29 43
-15z m232 -38 c7 -33 1 -50 -21 -50 -15 0 -19 35 -8 64 10 25 22 19 29 -14z
m-596 -6 c2 -2 -12 -4 -33 -4 -20 0 -35 4 -31 9 5 9 54 5 64 -5z m-7495 -35
c7 -44 2 -59 -20 -59 -11 0 -13 11 -10 48 5 55 4 52 15 52 5 0 11 -18 15 -41z
m5990 25 c20 -7 21 -20 3 -27 -19 -7 -41 8 -33 22 8 13 9 13 30 5z m-2099 -24
c0 -7 -6 -15 -12 -17 -8 -3 -13 4 -13 17 0 13 5 20 13 18 6 -3 12 -11 12 -18z
m4640 -20 c0 -22 -29 -18 -33 3 -3 14 1 18 15 15 10 -2 18 -10 18 -18z m-96
-14 c9 -10 9 -16 1 -21 -16 -10 -40 2 -40 20 0 19 24 20 39 1z m-11960 -16
c73 -33 95 -77 34 -66 -21 4 -100 13 -176 21 -135 13 -167 23 -167 51 0 11 27
14 133 14 110 0 139 -4 176 -20z m2586 10 c-3 -5 -13 -10 -21 -10 -8 0 -14 5
-14 10 0 6 9 10 21 10 11 0 17 -4 14 -10z m8875 0 c0 -5 -2 -10 -4 -10 -3 0
-8 5 -11 10 -3 6 -1 10 4 10 6 0 11 -4 11 -10z m-425 -39 c-13 -14 -17 -14
-31 1 -24 23 -10 40 22 26 22 -10 23 -13 9 -27z m372 -25 c-9 -22 -37 -20 -64
6 -30 28 -29 36 5 40 32 5 68 -23 59 -46z m723 48 c0 -3 -7 -12 -15 -21 -12
-11 -13 -19 -5 -28 9 -10 6 -16 -10 -25 -30 -16 -39 15 -11 41 11 11 21 24 21
29 0 6 5 10 10 10 6 0 10 -3 10 -6z m-8425 -24 c0 -22 -29 -18 -33 3 -3 14 1
18 15 15 10 -2 18 -10 18 -18z m8515 5 c0 -15 -11 -19 -38 -16 -8 1 -23 -5
-33 -15 -23 -21 -25 -12 -3 21 19 29 74 36 74 10z m-8154 -40 c10 -24 -6 -85
-22 -92 -23 -9 -68 40 -60 64 11 35 72 55 82 28z m5744 0 c0 -8 -7 -15 -15
-15 -16 0 -20 12 -8 23 11 12 23 8 23 -8z m2193 -11 c-7 -3 -9 -12 -6 -20 3
-9 -1 -14 -13 -14 -16 0 -17 2 -4 10 8 5 11 10 7 10 -5 0 -5 5 -2 10 3 6 12
10 18 9 9 0 9 -2 0 -5z m-11388 -63 c-3 -12 -11 -21 -16 -21 -10 0 -12 21 -3
45 10 24 27 2 19 -24z m11192 -17 c-9 -9 -28 6 -21 18 4 6 10 6 17 -1 6 -6 8
-13 4 -17z m513 -4 c14 -26 4 -46 -15 -30 -7 6 -11 20 -8 30 7 25 10 25 23 0z
m100 -45 c0 -11 -29 -30 -35 -23 -2 2 1 13 6 26 9 24 29 22 29 -3z m-805 -14
c10 -17 -12 -21 -25 -6 -10 12 -10 15 3 15 9 0 18 -4 22 -9z m-11495 -46 c0
-20 -5 -25 -25 -25 -33 0 -51 33 -29 54 21 22 54 4 54 -29z m11986 30 c-21
-16 -32 -13 -21 4 3 6 14 11 23 11 15 -1 15 -2 -2 -15z m-2458 -67 c-6 -18
-28 -21 -28 -4 0 9 7 16 16 16 9 0 14 -5 12 -12z m2267 -49 c-8 -12 -35 -12
-35 0 0 11 22 20 33 14 4 -2 5 -9 2 -14z m-735 -24 c0 -24 -24 -44 -37 -31 -9
8 14 56 27 56 5 0 10 -11 10 -25z m1700 -49 c0 -28 -12 -46 -31 -46 -14 0 -19
7 -19 30 0 25 4 30 25 30 15 0 25 -6 25 -14z m-10 -63 c-1 -5 -8 -19 -16 -33
-8 -14 -13 -17 -10 -7 3 10 6 25 6 33 0 8 5 14 10 14 6 0 10 -3 10 -7z m-1050
-34 c0 -24 -23 -21 -28 4 -2 10 3 17 12 17 10 0 16 -9 16 -21z m636 10 c8 -13
-32 -56 -42 -46 -9 9 12 57 25 57 5 0 13 -5 17 -11z m-3846 -79 c0 -5 -7 -10
-16 -10 -8 0 -12 5 -9 10 3 6 10 10 16 10 5 0 9 -4 9 -10z m4140 -45 c0 -8 -9
-15 -20 -15 -20 0 -26 11 -13 23 12 13 33 7 33 -8z m-3655 -16 c0 -7 -8 -15
-17 -17 -18 -3 -25 18 -11 32 10 10 28 1 28 -15z m833 -6 c-2 -10 -10 -18 -18
-18 -8 0 -16 8 -18 18 -2 12 3 17 18 17 15 0 20 -5 18 -17z m1902 -4 c0 -10
-4 -20 -8 -23 -13 -8 -35 11 -29 26 7 21 37 18 37 -3z m-106 -15 c4 -11 1 -14
-11 -12 -9 2 -18 9 -21 16 -6 18 25 15 32 -4z m286 -8 c0 -8 -4 -18 -10 -21
-5 -3 -10 3 -10 14 0 12 5 21 10 21 6 0 10 -6 10 -14z m760 4 c0 -5 -4 -10
-10 -10 -5 0 -10 5 -10 10 0 6 5 10 10 10 6 0 10 -4 10 -10z m-211 -14 c22
-12 22 -14 7 -23 -22 -12 -66 -5 -66 11 0 28 22 33 59 12z m-259 -16 c0 -5 -4
-10 -10 -10 -5 0 -10 5 -10 10 0 6 5 10 10 10 6 0 10 -4 10 -10z m654 -17
c-13 -10 -20 -10 -23 -2 -4 14 19 30 33 22 5 -3 1 -12 -10 -20z m-1324 7 c0
-5 -2 -10 -4 -10 -3 0 -8 5 -11 10 -3 6 -1 10 4 10 6 0 11 -4 11 -10z m180
-67 c0 -23 -20 -14 -30 13 -14 35 -13 36 10 17 11 -10 20 -23 20 -30z m880 16
c0 -6 -4 -7 -10 -4 -5 3 -10 11 -10 16 0 6 5 7 10 4 6 -3 10 -11 10 -16z
m-13074 0 c36 -9 44 -16 44 -34 0 -31 -22 -37 -71 -19 -50 17 -69 31 -69 50 0
17 35 18 96 3z m12099 -26 c-28 -20 -41 -16 -20 7 10 11 22 17 28 13 6 -4 3
-12 -8 -20z m1255 8 c8 -16 6 -22 -7 -30 -17 -9 -17 -11 1 -30 17 -19 17 -21
2 -27 -26 -10 -38 8 -27 38 5 14 7 35 4 47 -7 27 13 28 27 2z m-57 -30 c14 -2
7 -23 -15 -41 -19 -15 -20 -20 -9 -33 7 -9 10 -21 6 -27 -12 -20 -34 23 -35
67 0 39 2 43 23 39 12 -3 25 -5 30 -5z m-93 -46 c0 -6 9 -22 20 -35 24 -28 25
-34 5 -50 -12 -10 -17 -7 -27 15 -8 18 -17 25 -30 21 -14 -3 -18 0 -14 12 3 9
8 29 12 45 5 22 9 25 20 16 8 -6 14 -17 14 -24z m-12282 13 c-6 -18 -28 -21
-28 -4 0 9 7 16 16 16 9 0 14 -5 12 -12z m9157 -8 c11 -17 -5 -32 -21 -19 -7
6 -11 15 -8 20 7 12 21 11 29 -1z m3065 0 c0 -5 -4 -10 -10 -10 -5 0 -10 -13
-10 -30 0 -27 -3 -30 -31 -30 -26 0 -29 -2 -20 -14 17 -21 3 -66 -21 -66 -11
0 -16 -5 -13 -10 8 -13 -13 -40 -31 -40 -8 0 -14 6 -14 14 0 7 -9 16 -20 19
-17 4 -18 8 -8 35 9 23 9 37 1 55 -13 27 -6 36 47 66 23 13 24 13 12 -2 -8 -9
-11 -25 -8 -35 4 -12 1 -22 -7 -25 -9 -3 -12 -18 -11 -42 4 -46 6 -48 29 -32
19 15 23 54 11 102 -6 23 -5 26 3 15 10 -13 14 -12 29 6 16 19 34 28 65 33 4
0 7 -3 7 -9z m-1230 -10 c0 -5 -5 -10 -11 -10 -5 0 -7 5 -4 10 3 6 8 10 11 10
2 0 4 -4 4 -10z m330 0 c0 -5 -4 -10 -10 -10 -5 0 -10 5 -10 10 0 6 5 10 10
10 6 0 10 -4 10 -10z m1449 -27 c-22 -60 -71 -84 -84 -42 -8 24 17 56 49 62
45 9 46 9 35 -20z m-3412 -37 c-4 -9 -11 -16 -17 -16 -11 0 -14 33 -3 44 11
10 26 -11 20 -28z m2218 25 c3 -5 1 -12 -5 -16 -5 -3 -10 1 -10 9 0 18 6 21
15 7z m-80 -31 c-3 -5 -11 -10 -16 -10 -6 0 -7 5 -4 10 3 6 11 10 16 10 6 0 7
-4 4 -10z m1135 -11 c0 -24 -23 -21 -28 4 -2 10 3 17 12 17 10 0 16 -9 16 -21z
m-1600 1 c0 -5 -4 -10 -10 -10 -5 0 -10 5 -10 10 0 6 5 10 10 10 6 0 10 -4 10
-10z m1192 -3 c3 4 3 3 2 -4 -2 -7 1 -15 6 -18 14 -9 12 -35 -1 -35 -16 0 -38
31 -39 54 0 15 3 16 14 7 8 -7 16 -8 18 -4z m188 -9 c0 -6 -3 -8 -7 -5 -3 4
-12 2 -20 -5 -11 -8 -12 -7 -7 6 7 18 34 22 34 4z m-730 -8 c0 -5 -4 -10 -10
-10 -5 0 -10 5 -10 10 0 6 5 10 10 10 6 0 10 -4 10 -10z m316 -6 c-4 -9 -2
-22 4 -29 7 -9 8 -15 1 -19 -21 -13 25 -76 56 -76 21 0 15 -18 -8 -25 -24 -8
-69 28 -69 56 0 10 -4 20 -9 24 -14 8 10 85 26 85 3 0 2 -7 -1 -16z m-11089
-11 c-9 -9 -19 -14 -23 -11 -10 10 6 28 24 28 15 0 15 -1 -1 -17z m11005 -18
c0 -5 -5 -11 -11 -13 -6 -2 -11 4 -11 13 0 9 5 15 11 13 6 -2 11 -8 11 -13z
m2696 -32 c-3 -40 -32 -59 -44 -29 -11 28 5 66 27 66 17 0 20 -5 17 -37z
m-2944 10 c7 -17 -16 -43 -36 -43 -15 0 -20 30 -8 45 17 20 36 19 44 -2z m646
9 c0 -13 -12 -22 -22 -16 -10 6 -1 24 13 24 5 0 9 -4 9 -8z m-855 -22 c0 -22
-29 -18 -33 3 -3 14 1 18 15 15 10 -2 18 -10 18 -18z m492 14 c-3 -3 -12 -4
-19 -1 -8 3 -5 6 6 6 11 1 17 -2 13 -5z m-12227 -29 c0 -16 -27 -32 -37 -22
-3 4 -3 13 0 22 8 20 37 20 37 0z m11647 -21 c7 -18 -17 -38 -31 -24 -11 11
-1 40 14 40 6 0 13 -7 17 -16z m1183 -24 c9 -16 8 -22 -5 -26 -21 -8 -39 10
-32 30 9 22 24 20 37 -4z m-1318 -5 c0 -5 -5 -11 -11 -13 -6 -2 -11 4 -11 13
0 9 5 15 11 13 6 -2 11 -8 11 -13z m478 -4 c0 -12 -20 -25 -27 -18 -7 7 6 27
18 27 5 0 9 -4 9 -9z m238 -8 c-2 -10 -10 -18 -18 -18 -8 0 -16 8 -18 18 -2
12 3 17 18 17 15 0 20 -5 18 -17z m2672 -27 c0 -14 -4 -27 -9 -30 -13 -9 -32
19 -25 38 10 25 34 19 34 -8z m-2663 -31 c0 -11 -4 -12 -14 -4 -7 6 -13 13
-13 15 0 2 6 4 13 4 8 0 14 -7 14 -15z m-89 -23 c2 -15 -2 -22 -12 -22 -11 0
-16 9 -16 26 0 31 23 28 28 -4z m-168 6 c0 -16 -31 -48 -47 -48 -17 0 -17 6 5
35 18 26 42 33 42 13z m478 -16 c6 -18 -15 -14 -22 4 -4 10 -1 14 6 12 6 -2
14 -10 16 -16z m2430 -49 c-1 -32 2 -73 6 -90 7 -29 5 -33 -12 -33 -32 0 -44
23 -34 68 5 22 7 53 4 67 -4 25 9 44 31 45 4 0 6 -26 5 -57z m-2628 37 c0 -5
-4 -10 -10 -10 -5 0 -10 5 -10 10 0 6 5 10 10 10 6 0 10 -4 10 -10z m430 0
c11 -7 12 -12 3 -21 -15 -15 -43 -5 -43 16 0 17 18 19 40 5z m-12140 -15 c-7
-8 -17 -15 -22 -15 -6 0 -5 7 2 15 7 8 17 15 22 15 6 0 5 -7 -2 -15z m11370
-20 c0 -7 -7 -15 -15 -19 -15 -5 -22 24 -9 37 9 9 24 -2 24 -18z m-10742 -17
c5 -7 32 -110 60 -228 75 -315 117 -562 201 -1155 56 -396 63 -453 91 -760 11
-121 29 -312 40 -425 11 -113 29 -313 40 -445 11 -132 29 -330 40 -440 11
-110 29 -312 40 -450 11 -137 36 -448 55 -690 49 -601 53 -665 65 -1020 5
-170 12 -362 15 -427 4 -75 2 -118 -4 -123 -6 -3 -47 31 -91 76 -75 77 -82 81
-112 75 -64 -13 -155 -64 -268 -152 -63 -49 -144 -111 -180 -136 -257 -183
-811 -738 -1195 -1198 -43 -52 -98 -117 -122 -144 -48 -54 -161 -214 -187
-263 -12 -24 -23 -33 -41 -33 -27 0 -33 21 -12 41 7 7 11 25 9 40 -3 19 2 33
17 45 26 23 27 34 2 34 -30 0 -37 21 -13 41 23 18 28 44 13 68 -6 10 -4 25 5
43 8 16 13 32 10 36 -4 7 6 77 48 309 14 78 37 230 51 338 25 194 73 407 114
516 27 71 109 194 216 324 168 205 322 426 465 665 34 58 74 121 89 140 28 38
61 95 61 107 0 5 -9 -7 -20 -24 -11 -18 -24 -33 -30 -33 -15 0 44 72 80 99 37
27 38 48 3 63 l-28 11 46 14 c25 7 56 25 69 38 21 23 23 29 13 56 -7 17 -9 38
-6 46 5 12 2 15 -10 10 -11 -4 -17 -1 -17 8 0 17 9 19 30 5 14 -9 50 13 50 31
0 4 40 90 89 191 160 331 231 530 304 863 51 227 66 368 76 705 10 304 0 874
-18 1115 -6 72 -15 222 -21 335 -10 196 -33 467 -65 760 -7 74 -23 230 -35
345 -12 116 -32 284 -46 374 -13 90 -24 170 -24 177 0 17 24 18 38 2z m-1640
-15 c13 -26 4 -43 -24 -43 -32 0 -43 28 -19 46 25 18 32 18 43 -3z m12460 -26
c2 -11 -6 -19 -22 -23 -53 -13 -77 23 -25 37 32 9 43 6 47 -14z m752 -43 c0
-16 -16 -19 -25 -4 -8 13 4 32 16 25 5 -4 9 -13 9 -21z m-872 7 c11 -6 10 -11
-3 -25 -27 -27 -51 -17 -34 15 11 21 18 23 37 10z m42 -1 c0 -5 -2 -10 -4 -10
-3 0 -8 5 -11 10 -3 6 -1 10 4 10 6 0 11 -4 11 -10z m557 -17 c4 -12 -35 -38
-44 -30 -2 3 1 15 7 27 12 22 31 23 37 3z m-563 -60 c-9 -35 -13 -43 -25 -43
-12 0 -12 27 1 51 16 29 31 23 24 -8z m646 -88 c0 -8 -7 -15 -15 -15 -16 0
-20 12 -8 23 11 12 23 8 23 -8z m-220 -5 c12 -8 11 -10 -7 -10 -13 0 -23 5
-23 10 0 13 11 13 30 0z m-590 -75 c-7 -8 -21 -15 -31 -15 -11 0 -19 7 -19 15
0 10 10 15 31 15 27 0 30 -2 19 -15z m600 -10 c0 -29 -36 -53 -53 -36 -16 16
8 61 33 61 15 0 20 -7 20 -25z m2127 -19 c-4 -9 -11 -16 -17 -16 -11 0 -14 33
-3 44 11 10 26 -11 20 -28z m-2034 -3 c18 -10 3 -34 -44 -72 -58 -46 -69 -50
-69 -21 0 11 4 20 10 20 13 0 60 52 60 67 0 6 -6 14 -12 17 -7 3 1 3 17 -1 17
-3 33 -8 38 -10z m177 -4 c0 -5 -7 -9 -15 -9 -15 0 -20 12 -9 23 8 8 24 -1 24
-14z m-13256 2 c9 -14 -4 -41 -20 -41 -15 0 -17 10 -8 34 7 18 20 21 28 7z
m13506 -1 c0 -5 -4 -10 -10 -10 -5 0 -10 5 -10 10 0 6 5 10 10 10 6 0 10 -4
10 -10z m-855 -39 c3 -5 1 -13 -5 -16 -15 -9 -43 3 -35 15 8 13 32 13 40 1z
m265 0 c0 -9 -24 -21 -41 -21 -5 0 -9 7 -9 15 0 9 9 15 25 15 14 0 25 -4 25
-9z m-408 -61 c-2 -8 3 -10 13 -7 8 4 15 3 15 -2 0 -15 -51 -23 -67 -9 -13 10
-13 14 3 25 21 15 40 11 36 -7z m588 -20 c0 -15 -7 -20 -25 -20 -14 0 -25 2
-25 4 0 2 -3 11 -6 20 -5 13 1 16 25 16 24 0 31 -4 31 -20z m170 -6 c0 -8 -4
-14 -10 -14 -5 0 -10 9 -10 21 0 11 5 17 10 14 6 -3 10 -13 10 -21z m214 17
c3 -5 0 -11 -8 -14 -15 -6 -26 1 -26 15 0 11 27 10 34 -1z m-581 -12 c-9 -9
-9 -16 0 -30 15 -24 4 -33 -23 -17 -18 11 -23 10 -36 -6 -8 -12 -11 -28 -7
-40 11 -36 9 -61 -7 -61 -18 0 -39 77 -21 83 6 2 18 17 26 33 9 17 24 29 35
29 11 0 20 5 20 10 0 6 5 10 12 10 9 0 9 -3 1 -11z m93 -46 c-4 -4 -14 1 -22
11 -22 31 -17 43 8 19 12 -13 18 -26 14 -30z m-249 -25 l2 -42 -24 29 c-31 38
-31 55 -2 55 20 0 23 -5 24 -42z m43 36 c0 -8 -19 -13 -24 -6 -3 5 1 9 9 9 8
0 15 -2 15 -3z m-890 -35 c0 -5 -4 -9 -10 -9 -5 0 -10 7 -10 16 0 8 5 12 10 9
6 -3 10 -10 10 -16z m670 2 c0 -18 -24 -30 -42 -20 -23 12 -23 26 0 31 20 5
42 -1 42 -11z m568 -27 c-5 -28 -28 -29 -28 -1 0 13 3 27 7 31 10 10 25 -10
21 -30z m-193 -12 c15 -23 23 -46 19 -55 -8 -23 -24 -21 -24 1 0 11 -9 29 -20
42 -21 25 -24 33 -13 43 10 11 11 10 38 -31z m114 6 c10 -26 5 -41 -10 -32 -5
3 -7 15 -4 27 2 12 2 16 -1 9 -3 -6 -10 -10 -15 -6 -11 6 -2 24 12 24 5 0 13
-10 18 -22z m-379 3 c0 -5 3 -16 6 -25 5 -12 0 -16 -20 -16 -19 0 -26 5 -26
18 0 10 3 22 7 25 10 10 33 8 33 -2z m-8776 -97 c21 -20 21 -88 1 -104 -12
-10 -21 -10 -40 -2 -22 10 -25 18 -25 60 0 27 3 52 7 55 11 12 41 7 57 -9z
m9386 6 c0 -5 -4 -10 -9 -10 -6 0 -13 5 -16 10 -3 6 1 10 9 10 9 0 16 -4 16
-10z m-380 -10 c-20 -13 -47 -13 -55 0 -4 6 9 10 32 10 28 0 34 -3 23 -10z
m315 -20 c0 -36 -29 -33 -33 3 -3 23 0 28 15 25 12 -2 18 -12 18 -28z m-2475
-20 c0 -5 -7 -10 -15 -10 -8 0 -15 5 -15 10 0 6 7 10 15 10 8 0 15 -4 15 -10z
m-466 -19 c11 -12 14 -21 7 -25 -15 -10 -51 12 -51 29 0 21 24 19 44 -4z
m3371 -20 c-3 -6 -11 -11 -17 -11 -6 0 -6 6 2 15 14 17 26 13 15 -4z m-45 -22
c0 -5 -7 -9 -15 -9 -9 0 -15 9 -15 21 0 18 2 19 15 9 8 -7 15 -16 15 -21z
m-3130 1 c13 -9 13 -11 0 -20 -8 -5 -21 -10 -28 -10 -15 0 -72 28 -72 35 0 9
85 5 100 -5z m2910 -24 c0 -13 -7 -26 -15 -30 -16 -6 -20 10 -9 38 9 24 24 19
24 -8z m98 -29 c2 -12 -3 -17 -17 -17 -15 0 -21 6 -21 21 0 25 33 22 38 -4z
m-2038 -8 c0 -5 -9 -9 -20 -9 -19 0 -26 11 -14 23 8 8 34 -3 34 -14z m1618
-14 c-2 -14 -7 -26 -13 -26 -5 0 -11 12 -13 26 -2 18 1 25 13 25 12 0 15 -7
13 -25z m-9144 -47 c3 -13 7 -65 9 -117 3 -61 9 -96 17 -101 7 -5 58 -11 114
-15 101 -7 146 -22 146 -50 0 -11 -24 -13 -144 -8 l-144 6 -23 -73 c-40 -123
-46 -103 -42 137 3 120 6 224 8 231 3 6 16 12 29 12 19 0 27 -6 30 -22z m9173
-30 c-3 -8 -6 -5 -6 6 -1 11 2 17 5 13 3 -3 4 -12 1 -19z m-2980 -4 c7 -20
-11 -38 -32 -30 -13 4 -14 10 -5 26 13 24 28 26 37 4z m1001 -33 c3 -19 0 -22
-13 -17 -9 3 -19 6 -21 6 -2 0 -4 9 -4 21 0 29 34 21 38 -10z m2712 14 c0 -8
-4 -15 -10 -15 -5 0 -10 7 -10 15 0 8 5 15 10 15 6 0 10 -7 10 -15z m-1924
-26 c10 -17 -13 -36 -27 -22 -12 12 -4 33 11 33 5 0 12 -5 16 -11z m-636 -18
c0 -6 -5 -13 -10 -16 -15 -9 -43 3 -35 15 8 13 45 13 45 1z m2094 -36 c6 -18
-16 -30 -39 -21 -20 7 -8 36 15 36 10 0 21 -7 24 -15z m-629 -25 c11 -17 -5
-32 -21 -19 -7 6 -11 15 -8 20 7 12 21 11 29 -1z m-9060 -100 l0 -35 -125 1
c-148 0 -180 7 -180 34 0 11 3 21 8 21 19 3 222 15 257 14 39 0 40 -1 40 -35z
m939 4 c8 -20 8 -92 0 -121 -4 -13 -14 -23 -23 -23 -9 0 -22 -13 -28 -31 -7
-17 -17 -28 -22 -24 -15 9 -14 31 3 48 12 11 12 23 4 54 -7 31 -6 48 6 76 16
39 49 51 60 21z m8776 -4 c0 -5 -4 -10 -10 -10 -5 0 -10 5 -10 10 0 6 5 10 10
10 6 0 10 -4 10 -10z m-2470 -20 c0 -11 -4 -20 -10 -20 -5 0 -10 9 -10 20 0
11 5 20 10 20 6 0 10 -9 10 -20z m2408 -17 c2 -9 -7 -13 -27 -13 -30 0 -39 9
-24 24 11 10 46 3 51 -11z m-10493 -3 c-3 -5 -10 -10 -16 -10 -5 0 -9 5 -9 10
0 6 7 10 16 10 8 0 12 -4 9 -10z m4363 -33 c2 -12 -3 -17 -17 -17 -12 0 -21 6
-21 13 0 31 32 34 38 4z m7192 8 c0 -8 -7 -15 -15 -15 -16 0 -20 12 -8 23 11
12 23 8 23 -8z m-9406 -51 c8 -20 -11 -44 -34 -44 -23 0 -44 26 -36 45 8 21
62 20 70 -1z m8551 -4 c-3 -5 -11 -10 -16 -10 -6 0 -7 5 -4 10 3 6 11 10 16
10 6 0 7 -4 4 -10z m-9075 -35 c13 -8 13 -45 1 -45 -5 0 -22 7 -38 14 -15 8
-36 17 -46 20 -10 3 -16 10 -12 15 6 10 77 7 95 -4z m7335 -10 c0 -10 -6 -20
-12 -22 -8 -3 -13 5 -13 22 0 17 5 25 13 23 6 -3 12 -13 12 -23z m1683 -3 c3
-16 -2 -22 -16 -22 -22 0 -37 36 -18 44 19 8 31 0 34 -22z m-9330 -15 c11 -22
11 -31 2 -43 -15 -17 -42 -18 -58 -2 -13 13 -16 60 -5 72 15 15 48 0 61 -27z
m520 13 c34 -21 40 -38 20 -58 -29 -29 -63 -8 -74 46 -8 38 6 41 54 12z m7242
11 c0 -6 -4 -13 -10 -16 -5 -3 -10 1 -10 9 0 9 5 16 10 16 6 0 10 -4 10 -9z
m1005 -30 c-3 -12 -13 -21 -21 -21 -17 0 -19 31 -2 48 17 17 32 -1 23 -27z
m475 -5 c0 -8 -4 -17 -9 -21 -12 -7 -24 12 -16 25 9 15 25 12 25 -4z m146
-112 c-36 -26 -51 -10 -20 21 13 12 20 13 28 5 8 -8 6 -15 -8 -26z m-606 6 c0
-5 -5 -10 -11 -10 -5 0 -7 5 -4 10 3 6 8 10 11 10 2 0 4 -4 4 -10z m443 -29
c18 -7 26 -19 31 -51 8 -50 -5 -70 -45 -70 -16 0 -32 -7 -37 -16 -17 -31 -32
-4 -32 59 0 44 3 58 10 47 5 -8 10 -28 10 -43 0 -15 7 -30 15 -33 48 -19 62
80 15 103 -30 15 -5 18 33 4z m117 0 c-2 -19 -27 -101 -33 -107 -8 -8 -10 77
-2 99 6 13 35 20 35 8z m73 -58 c2 -5 7 -25 11 -45 8 -42 -5 -50 -36 -21 -18
16 -24 53 -11 66 9 9 31 9 36 0z m-325 -28 c18 -40 15 -55 -13 -55 -22 0 -25
4 -25 33 0 53 19 63 38 22z m-323 -55 c-4 -11 -11 -18 -16 -15 -11 7 -12 48
-2 59 11 11 25 -23 18 -44z m-9365 -41 c0 -12 -7 -19 -20 -19 -19 0 -28 28
-14 43 11 11 34 -5 34 -24z m9840 -7 c0 -5 -16 -13 -35 -19 -27 -9 -35 -8 -35
1 0 7 3 16 7 19 9 10 63 9 63 -1z m-110 -19 c0 -9 -3 -14 -6 -10 -4 3 -14 -1
-22 -10 -12 -12 -17 -13 -20 -3 -5 13 23 40 40 40 4 0 8 -7 8 -17z m-2285 -61
c0 -47 5 -67 23 -91 44 -60 20 -71 -27 -12 -27 34 -31 47 -31 98 0 33 3 63 7
67 17 17 28 -6 28 -62z m950 57 c10 -15 -1 -23 -20 -15 -9 3 -13 10 -10 16 8
13 22 13 30 -1z m1365 -30 c0 -11 -4 -17 -10 -14 -5 3 -10 15 -10 26 0 11 5
17 10 14 6 -3 10 -15 10 -26z m-2715 -25 c0 -10 -8 -20 -17 -22 -18 -3 -26 27
-11 42 12 11 28 0 28 -20z m2739 -29 c21 -32 20 -35 -8 -35 -28 0 -51 24 -42
45 8 23 32 18 50 -10z m-10779 -70 c0 -23 -6 -30 -27 -36 -32 -8 -38 -4 -38
28 0 21 10 28 33 24 4 0 7 4 7 10 0 6 6 9 13 7 6 -3 12 -17 12 -33z m150 5 c0
-30 -32 -35 -49 -7 -8 14 -8 20 4 27 24 16 45 7 45 -20z m4245 14 c0 -9 -7
-14 -17 -12 -25 5 -28 28 -4 28 12 0 21 -6 21 -16z m-4581 -16 c12 -33 3 -48
-29 -48 -34 0 -44 13 -36 46 9 32 53 34 65 2z m61 -7 c0 -28 -15 -49 -27 -38
-8 8 7 67 18 67 5 0 9 -13 9 -29z m1838 17 c5 -7 12 -24 14 -38 3 -28 -1 -29
-102 -13 -50 7 -55 10 -58 36 l-3 27 69 0 c44 0 73 -5 80 -12z m3460 -51 c2
-12 -3 -17 -17 -17 -15 0 -21 6 -21 21 0 25 33 22 38 -4z m-3938 -28 c14 -26
-9 -65 -48 -80 -31 -12 -140 -5 -156 11 -5 5 -21 10 -34 10 -31 0 -62 17 -62
35 0 16 25 26 66 25 16 0 49 4 74 9 25 4 68 9 97 10 43 1 54 -3 63 -20z m-310
-4 c0 -33 -57 -30 -68 3 -2 8 9 12 32 12 26 0 36 -4 36 -15z m8166 6 c-3 -5
-23 -11 -43 -13 -21 -3 -46 -8 -57 -13 -14 -6 -18 -5 -14 6 2 8 20 17 39 20
53 10 81 10 75 0z m-8446 -11 c0 -5 -11 -10 -25 -10 -14 0 -25 5 -25 10 0 6
11 10 25 10 14 0 25 -4 25 -10z m7910 -39 c0 -11 -5 -23 -11 -27 -15 -9 -33
12 -26 30 9 23 37 20 37 -3z m2930 -26 c0 -16 -27 -32 -37 -22 -3 4 -3 13 0
22 8 20 37 20 37 0z m-2330 -40 c-14 -16 -40 -20 -40 -6 0 10 17 19 39 20 11
1 11 -2 1 -14z m-6765 -50 c0 -22 -31 -33 -47 -17 -17 17 -1 44 24 40 15 -2
23 -10 23 -23z m-355 11 c0 -3 -4 -8 -10 -11 -5 -3 -10 -1 -10 4 0 6 5 11 10
11 6 0 10 -2 10 -4z m3240 -45 c0 -4 -3 -11 -7 -14 -9 -9 -33 12 -33 30 0 11
4 11 20 3 11 -6 20 -14 20 -19z m2508 -71 c-13 -21 -48 -28 -48 -10 0 6 10 15
23 20 34 13 38 12 25 -10z m-2378 -30 c35 -29 35 -29 9 -30 -26 0 -75 41 -62
53 11 11 17 9 53 -23z m398 -22 c-5 -15 -42 -22 -64 -14 -25 10 -5 26 32 26
24 0 34 -4 32 -12z m5040 -35 c-4 -22 -48 -31 -48 -10 0 19 10 27 32 27 13 0
18 -6 16 -17z m-2377 -7 c-15 -18 -61 -27 -61 -11 0 19 11 25 43 25 24 0 27
-3 18 -14z m-96 -16 c0 -9 -11 -16 -27 -18 -23 -3 -28 1 -28 18 0 17 5 21 28
18 16 -2 27 -9 27 -18z m-157 1 c11 -6 10 -11 -3 -25 -18 -18 -55 -22 -55 -6
0 6 -13 4 -30 -5 -37 -19 -61 -19 -55 0 3 8 7 22 10 30 3 11 19 15 62 15 32 0
64 -4 71 -9z m92 0 c0 -15 -25 -31 -47 -31 -22 0 -28 18 -9 31 11 9 56 8 56 0z
m-392 -38 c-2 -30 -8 -39 -24 -41 -20 -3 -21 -1 -11 37 14 53 39 55 35 4z
m110 5 c-3 -29 -7 -33 -35 -36 -28 -3 -31 -1 -26 20 9 44 13 48 38 48 24 0 26
-3 23 -32z m29 10 c-3 -8 -6 -5 -6 6 -1 11 2 17 5 13 3 -3 4 -12 1 -19z m-197
-11 c0 -31 -18 -47 -52 -47 -24 0 -28 4 -28 29 0 32 10 39 53 40 22 1 27 -3
27 -22z m-2690 -6 c0 -21 -26 -36 -36 -20 -9 15 3 39 21 39 8 0 15 -9 15 -19z
m2410 -27 c-10 -45 -22 -58 -48 -50 -15 5 -19 15 -18 44 1 33 4 38 31 43 41 7
44 4 35 -37z m132 31 c5 -6 8 -5 8 3 0 6 7 12 15 12 12 0 14 -7 9 -27 -9 -38
-11 -40 -76 -48 l-58 -6 0 35 c0 33 2 35 38 38 51 5 56 4 64 -7z m-351 -45
c-4 -54 -7 -60 -32 -60 -17 0 -19 5 -14 43 l5 42 -11 -37 c-9 -30 -16 -38 -35
-38 -21 0 -24 5 -24 35 0 19 0 38 0 43 -1 8 63 20 95 18 17 -1 19 -7 16 -46z
m123 18 c-9 -55 -12 -58 -46 -58 -32 0 -33 2 -32 38 1 20 2 40 3 45 0 4 19 7
41 7 39 0 39 0 34 -32z m-366 -42 c-3 -50 -4 -51 -35 -54 -32 -3 -33 -2 -23
23 13 34 13 68 0 60 -5 -3 -10 -17 -10 -30 0 -31 -10 -55 -22 -55 -5 0 -8 23
-6 53 3 51 4 52 38 57 55 9 61 4 58 -54z m110 12 c-3 -52 -4 -53 -36 -56 -31
-3 -33 -2 -23 17 6 11 11 30 10 43 0 18 -2 16 -12 -11 -23 -67 -46 -47 -31 28
6 29 9 31 51 31 l44 0 -3 -52z m-230 34 c10 -7 10 -20 2 -59 -11 -49 -12 -51
-52 -57 -23 -4 -45 -3 -49 1 -4 4 -5 29 -2 56 5 42 9 48 37 56 41 12 48 12 64
3z m-108 -14 c0 -23 -25 -97 -37 -109 -6 -6 -23 -9 -38 -7 l-27 3 21 24 c14
15 21 38 21 63 0 36 2 38 30 38 17 0 30 -5 30 -12z m-1312 -15 c11 -10 27 -30
36 -44 16 -25 16 -28 1 -43 -18 -17 -62 -21 -83 -7 -10 6 -4 10 21 15 19 4 38
14 41 23 4 9 5 17 4 17 -2 1 -16 6 -33 12 -16 5 -31 17 -33 27 -4 22 20 22 46
0z m1090 -8 c2 -13 -8 -29 -28 -43 -16 -12 -30 -28 -30 -35 0 -23 -15 -35 -53
-42 -44 -8 -49 7 -17 48 11 14 20 33 20 44 -1 11 -6 7 -15 -14 -7 -17 -22 -36
-33 -42 -16 -9 -21 -7 -25 11 -3 11 -3 34 0 50 5 27 9 29 34 24 16 -3 29 -1
29 4 0 11 34 18 80 16 27 -1 36 -6 38 -21z m152 4 c0 -17 -13 -42 -46 -87 -1
-2 -18 -7 -37 -12 l-35 -7 4 41 c3 38 0 32 -12 -21 -3 -18 -11 -23 -34 -23
-17 0 -30 2 -30 5 0 16 31 63 45 68 8 4 15 15 15 25 0 28 8 32 72 32 52 0 58
-2 58 -21z m3465 1 c0 -8 -10 -16 -22 -18 -18 -3 -23 2 -23 18 0 16 5 21 23
18 12 -2 22 -10 22 -18z m-3812 -2 c-2 -5 -3 -37 -3 -73 l0 -65 -35 0 -35 0 4
73 c3 39 5 73 5 75 1 2 16 2 34 0 17 -2 31 -6 30 -10z m-81 -44 c-2 -16 -3
-42 -4 -59 -1 -33 -12 -45 -45 -45 -25 0 -31 27 -13 61 9 16 7 19 -10 19 -12
0 -20 -7 -21 -17 0 -15 -2 -15 -9 2 -7 15 -9 10 -9 -22 l-1 -43 -41 0 c-35 0
-40 2 -34 18 17 38 18 72 2 72 -32 0 -47 -12 -46 -39 2 -23 2 -24 6 -3 2 12 8
22 13 22 11 0 -9 -73 -24 -82 -6 -4 -21 -8 -34 -8 -20 0 -21 2 -11 21 7 13 9
41 5 70 -4 26 -2 50 3 53 5 3 51 6 102 7 52 1 103 5 114 9 34 13 60 -4 57 -36z
m-312 7 c15 -28 12 -83 -5 -107 -18 -27 -62 -36 -109 -23 -36 10 -36 10 -36
64 0 30 0 58 0 63 -1 8 50 19 102 21 28 1 40 -4 48 -18z m-292 -4 c15 -18 19
-69 5 -74 -6 -2 -16 12 -23 31 -6 20 -18 36 -26 36 -8 0 -14 5 -14 10 0 14 46
12 58 -3z m122 -1 c0 -8 -4 -18 -10 -21 -5 -3 -10 -26 -10 -51 0 -41 -2 -45
-22 -42 -15 2 -21 9 -19 18 3 8 4 32 2 53 -1 21 1 42 4 48 10 15 55 11 55 -5z
m5220 4 c0 -12 -28 -25 -36 -17 -9 9 6 27 22 27 8 0 14 -5 14 -10z m-5430 -39
c15 -29 12 -56 -9 -75 -18 -16 -19 -16 -23 21 -8 66 10 95 32 54z m5740 -15
c0 -8 -4 -18 -10 -21 -5 -3 -10 3 -10 14 0 12 5 21 10 21 6 0 10 -6 10 -14z
m-744 -31 c7 -18 -12 -45 -32 -45 -17 0 -18 32 -2 48 16 16 27 15 34 -3z
m-4878 -78 c11 -8 18 -47 8 -47 -9 0 -82 33 -93 42 -7 6 -10 14 -7 19 7 11 73
1 92 -14z m5267 -38 c0 -7 -8 -15 -17 -17 -18 -3 -25 18 -11 32 10 10 28 1 28
-15z m-5282 -25 c9 -9 -4 -35 -14 -28 -5 3 -9 12 -9 20 0 14 12 19 23 8z m109
-72 c18 -20 46 -44 62 -52 16 -8 34 -26 40 -40 6 -14 17 -30 25 -36 23 -18 6
-44 -29 -44 -34 0 -36 2 -15 34 15 22 14 24 -9 40 -32 21 -39 20 -78 -4 -54
-33 -63 -23 -19 21 49 47 45 63 -20 74 -43 7 -59 23 -38 36 26 16 48 9 81 -29z
m3528 -17 c0 -27 -22 -48 -47 -43 -27 5 -28 43 -2 61 27 20 49 12 49 -18z
m-680 1 c0 -8 -7 -16 -15 -20 -10 -4 -15 1 -15 14 0 11 7 20 15 20 8 0 15 -6
15 -14z m-5358 -28 c-15 -15 -26 -4 -18 18 5 13 9 15 18 6 9 -9 9 -15 0 -24z
m-682 -18 c0 -21 -24 -28 -35 -10 -8 14 3 30 21 30 8 0 14 -9 14 -20z m5038
-12 c-6 -18 -28 -21 -28 -4 0 9 7 16 16 16 9 0 14 -5 12 -12z m-143 -19 c0 -8
-10 -15 -22 -17 -25 -4 -30 7 -11 26 15 15 33 10 33 -9z m3275 -14 c0 -16 -27
-32 -37 -22 -3 4 -3 13 0 22 8 20 37 20 37 0z m-1436 -23 c13 -16 24 -18 64
-11 27 4 51 3 57 -2 12 -12 -11 -29 -42 -29 -12 0 -35 -11 -51 -25 -31 -26
-52 -32 -52 -16 0 6 5 13 10 16 19 11 11 57 -10 62 -11 3 -20 9 -20 14 0 16
26 10 44 -9z m306 -12 c0 -5 -7 -10 -16 -10 -8 0 -12 5 -9 10 3 6 10 10 16 10
5 0 9 -4 9 -10z m-6064 -11 c9 -15 -21 -43 -39 -36 -21 8 -10 47 14 47 10 0
21 -5 25 -11z m-5136 -29 c0 -11 -7 -20 -15 -20 -8 0 -15 9 -15 20 0 11 7 20
15 20 8 0 15 -9 15 -20z m7140 11 c0 -5 -7 -12 -16 -15 -24 -9 -28 -7 -14 9
14 17 30 20 30 6z m-235 -21 c-3 -5 -13 -10 -21 -10 -8 0 -14 5 -14 10 0 6 9
10 21 10 11 0 17 -4 14 -10z m3950 -10 c3 -11 4 -24 1 -28 -8 -13 38 -32 62
-26 11 4 43 -8 78 -28 43 -24 54 -34 40 -36 -10 -2 -39 6 -62 18 -53 26 -90
20 -79 -13 19 -61 17 -71 -26 -100 l-41 -28 -24 22 c-13 12 -24 31 -24 41 0
10 -5 27 -12 37 -19 31 -4 48 51 55 75 10 67 46 -10 46 -22 0 -29 5 -29 20 0
37 64 55 75 20z m545 10 c0 -5 -4 -10 -10 -10 -5 0 -10 5 -10 10 0 6 5 10 10
10 6 0 10 -4 10 -10z m-3784 -62 c24 -23 44 -46 44 -52 0 -6 19 -24 41 -41 49
-36 154 -184 141 -197 -6 -6 -37 23 -81 75 -39 47 -80 88 -90 92 -21 6 -36 38
-26 54 8 15 -14 24 -85 36 -50 8 -66 15 -68 29 -3 16 0 18 24 12 47 -12 49
-12 47 12 -2 12 0 22 3 22 3 0 25 -19 50 -42z m-2858 4 c3 -16 -2 -22 -17 -22
-24 0 -35 15 -27 36 9 23 40 13 44 -14z m2002 18 c0 -5 -5 -10 -11 -10 -5 0
-7 5 -4 10 3 6 8 10 11 10 2 0 4 -4 4 -10z m-70 -70 c0 -12 -28 -25 -36 -17
-9 9 6 27 22 27 8 0 14 -5 14 -10z m-1307 -51 c-13 -13 -43 -5 -43 10 0 13 33
20 45 9 5 -5 5 -12 -2 -19z m373 7 c9 -24 -15 -56 -41 -56 -32 0 -34 33 -3 54
28 20 37 20 44 2z m7088 -12 c9 -22 7 -54 -2 -54 -15 0 -32 24 -32 47 0 26 25
31 34 7z m-12126 -46 c-3 -34 -20 -42 -26 -13 -5 22 5 45 18 45 7 0 10 -14 8
-32z m4100 -1 c2 -10 -3 -17 -12 -17 -9 0 -16 2 -16 4 0 2 -3 12 -6 21 -5 13
-2 16 12 13 10 -2 20 -11 22 -21z m222 -27 c0 -16 -7 -20 -30 -20 -18 0 -30 5
-30 13 0 20 10 27 37 27 16 0 23 -6 23 -20z m7300 -40 c0 -15 -7 -20 -25 -20
-18 0 -25 5 -25 20 0 15 7 20 25 20 18 0 25 -5 25 -20z m-1472 -43 c3 -21 -1
-27 -16 -27 -30 0 -48 26 -32 45 19 23 45 14 48 -18z m1660 6 c-4 -22 -58 -31
-58 -10 0 20 10 27 37 27 18 0 24 -5 21 -17z m-3753 -3 c3 -5 -1 -10 -9 -10
-9 0 -16 5 -16 10 0 6 4 10 9 10 6 0 13 -4 16 -10z m3395 -75 c0 -8 -7 -15
-15 -15 -8 0 -15 7 -15 15 0 8 7 15 15 15 8 0 15 -7 15 -15z m-13112 -7 c-6
-18 -68 -58 -89 -58 -31 0 -21 23 19 47 41 25 76 30 70 11z m13486 -5 c4 -9 3
-20 -2 -25 -11 -11 -36 17 -27 32 9 15 22 12 29 -7z m-74 -33 c0 -6 -6 -10
-14 -10 -28 0 -46 12 -46 31 0 18 2 19 30 4 17 -9 30 -20 30 -25z m-11795 -9
c0 -17 -42 -34 -51 -20 -8 14 16 40 35 37 9 -2 16 -9 16 -17z m10186 4 c0 -5
-9 -11 -21 -13 -20 -3 -27 8 -13 22 10 9 34 3 34 -9z m-12163 -37 c-3 -7 -11
-13 -18 -13 -7 0 -15 6 -17 13 -3 7 4 12 17 12 13 0 20 -5 18 -12z m12160 -25
c4 -29 -26 -57 -44 -42 -19 16 -18 46 4 58 23 14 36 9 40 -16z m1396 21 c9 -3
16 -17 16 -30 0 -19 -5 -24 -24 -24 -26 0 -39 20 -30 45 7 16 14 18 38 9z
m-3774 -75 c0 -12 -47 -12 -55 0 -6 11 23 20 43 13 6 -2 12 -8 12 -13z m157
-15 c-3 -3 -12 -4 -19 -1 -8 3 -5 6 6 6 11 1 17 -2 13 -5z m-3113 -37 c-3 -9
-10 -17 -15 -17 -11 0 -12 34 -2 44 11 11 24 -9 17 -27z m3206 13 c27 -17 0
-24 -33 -7 -30 15 -31 16 -7 16 14 0 32 -3 40 -9z m2210 2 c0 -5 -11 -32 -25
-60 -14 -29 -25 -58 -25 -65 0 -19 -27 -53 -36 -44 -4 4 7 35 24 68 18 34 32
68 32 75 0 8 5 14 11 14 5 0 7 5 4 10 -3 6 -1 10 4 10 6 0 11 -4 11 -8z
m-10340 -16 c0 -17 -14 -29 -23 -20 -8 8 3 34 14 34 5 0 9 -6 9 -14z m6410
-27 c0 -5 -7 -9 -15 -9 -15 0 -20 12 -9 23 8 8 24 -1 24 -14z m-7733 -95 c3
-8 1 -20 -5 -26 -15 -15 -43 8 -35 28 7 19 32 18 40 -2z m6768 -4 c7 -12 -12
-40 -26 -40 -10 0 -12 34 -2 43 9 10 21 9 28 -3z m-5601 -49 c8 -12 -21 -34
-33 -27 -6 4 -8 13 -4 21 6 17 29 20 37 6z m13201 -276 c14 -154 33 -350 41
-435 18 -191 61 -682 74 -850 9 -114 27 -296 49 -505 12 -113 8 -225 -10 -236
-31 -20 -39 -10 -39 51 0 59 -15 110 -33 110 -5 0 -2 -11 7 -25 19 -29 19 -38
5 -105 -10 -45 -15 -53 -52 -72 -23 -11 -68 -39 -99 -61 -32 -23 -60 -38 -64
-34 -3 3 -16 -5 -28 -18 -11 -12 -106 -74 -211 -137 -104 -63 -242 -149 -305
-190 -63 -41 -184 -117 -268 -169 -84 -52 -208 -129 -275 -171 -67 -42 -175
-110 -240 -150 -65 -40 -136 -84 -157 -98 -50 -32 -150 -96 -385 -243 -219
-137 -478 -304 -662 -428 -124 -84 -359 -229 -370 -229 -3 0 -24 -15 -47 -33
-23 -18 -117 -85 -211 -148 -240 -163 -501 -353 -562 -410 -52 -49 -83 -62
-83 -35 0 30 14 48 54 68 22 11 109 71 191 132 199 149 541 394 602 431 38 23
356 239 623 423 102 71 322 222 490 337 413 283 587 402 770 529 85 59 199
138 253 174 54 37 150 104 213 150 63 45 206 144 317 218 238 160 383 269 399
297 7 14 7 148 -1 476 -13 569 -25 1678 -18 1671 3 -3 18 -131 32 -285z m-825
174 c0 -26 -2 -28 -19 -17 -24 15 -33 42 -18 57 16 16 37 -6 37 -40z m-13056
-5 c7 -19 -1 -34 -19 -34 -18 0 -28 17 -21 35 7 20 32 19 40 -1z m866 -35 c0
-5 -4 -9 -10 -9 -5 0 -10 7 -10 16 0 8 5 12 10 9 6 -3 10 -10 10 -16z m-372
-7 c2 -7 -2 -10 -12 -6 -9 3 -16 11 -16 16 0 13 23 5 28 -10z m247 -11 c3 -5
1 -12 -5 -16 -5 -3 -10 1 -10 9 0 18 6 21 15 7z m-997 -42 c18 -10 40 -19 48
-19 8 0 65 -24 127 -54 125 -60 238 -147 255 -194 6 -17 23 -36 39 -44 17 -8
29 -23 31 -38 2 -14 8 -29 13 -34 12 -13 12 -46 0 -46 -6 0 -13 5 -16 10 -4 7
-13 7 -26 0 -31 -17 -157 6 -137 25 11 12 80 15 114 6 27 -7 34 -7 34 5 0 29
-73 114 -147 169 -79 60 -259 151 -353 179 -60 18 -100 41 -100 58 0 16 78 1
118 -23z m12589 -31 c-3 -8 -6 -5 -6 6 -1 11 2 17 5 13 3 -3 4 -12 1 -19z
m-12146 -29 c9 -17 8 -24 -4 -36 -21 -21 -57 -1 -57 32 0 20 5 25 25 25 15 0
29 -8 36 -21z m12892 1 c5 -21 -7 -35 -22 -26 -10 7 -3 46 9 46 4 0 10 -9 13
-20z m-736 -27 c-3 -10 -5 -4 -5 12 0 17 2 24 5 18 2 -7 2 -21 0 -30z m-11659
5 c-6 -18 -28 -21 -28 -4 0 9 7 16 16 16 9 0 14 -5 12 -12z m-68 -33 c0 -8 9
-23 20 -32 24 -21 27 -55 4 -51 -9 2 -20 -5 -25 -14 -5 -10 -13 -26 -18 -35
-10 -22 -25 -23 -29 -2 -1 8 11 33 28 54 29 37 30 40 14 52 -25 18 -33 16 -44
-11 -12 -33 -35 -46 -25 -15 13 40 36 69 56 69 11 0 19 -7 19 -15z m12482 -65
c-5 -8 -19 -16 -31 -18 -18 -3 -21 1 -21 32 0 19 7 42 17 52 16 16 18 15 31
-17 9 -22 11 -39 4 -49z m-4022 10 c0 -5 -7 -10 -15 -10 -8 0 -15 5 -15 10 0
6 7 10 15 10 8 0 15 -4 15 -10z m-8566 -26 c18 -18 21 -50 5 -59 -19 -12 -56
4 -62 27 -11 41 27 63 57 32z m11496 -14 c0 -13 -7 -20 -20 -20 -19 0 -27 20
-13 33 13 14 33 6 33 -13z m-11230 -46 c0 -9 -7 -14 -17 -12 -25 5 -28 28 -4
28 12 0 21 -6 21 -16z m11606 -45 c3 -6 2 -15 -4 -21 -6 -6 -11 -2 -15 11 -5
22 7 29 19 10z m-4779 -15 c9 -23 -13 -40 -32 -24 -12 10 -13 16 -4 26 15 18
28 18 36 -2z m4599 -75 c10 -18 -21 -42 -45 -34 -23 7 -28 30 -8 38 22 9 46 7
53 -4z m-10136 -18 c0 -12 -37 -21 -92 -21 -45 0 -57 7 -41 23 10 10 133 8
133 -2z m-1683 -63 c-4 -13 -13 -32 -21 -43 -13 -16 -17 -17 -25 -6 -9 14 7
71 24 83 16 11 28 -8 22 -34z m11538 22 c8 -13 -13 -40 -31 -40 -14 0 -19 31
-7 43 10 10 31 8 38 -3z m-755 -43 c0 -13 -9 -32 -20 -42 -11 -10 -20 -24 -20
-30 0 -7 -7 -18 -15 -25 -28 -23 -28 15 -1 69 28 54 56 68 56 28z m-10903 -2
c3 -9 3 -19 -1 -22 -8 -9 -37 18 -30 28 8 14 24 11 31 -6z m4443 -10 c0 -16
-27 -32 -37 -22 -3 4 -3 13 0 22 8 20 37 20 37 0z m5465 -15 c3 -6 -1 -13 -10
-16 -19 -8 -30 0 -20 15 8 14 22 14 30 1z m-10855 -20 c0 -5 -5 -10 -11 -10
-5 0 -7 5 -4 10 3 6 8 10 11 10 2 0 4 -4 4 -10z m5230 -30 c0 -5 -5 -10 -11
-10 -5 0 -7 5 -4 10 3 6 8 10 11 10 2 0 4 -4 4 -10z m-4030 -20 c0 -5 -2 -10
-4 -10 -3 0 -8 5 -11 10 -3 6 -1 10 4 10 6 0 11 -4 11 -10z m-80 -22 c0 -20
-15 -24 -26 -7 -4 6 -20 8 -40 4 -19 -3 -39 -3 -44 0 -21 13 0 21 54 21 47 0
56 -3 56 -18z m11798 0 c-3 -7 -15 -13 -28 -13 -13 0 -25 6 -27 13 -3 8 6 12
27 12 21 0 30 -4 28 -12z m-11713 -18 c3 -5 22 -10 41 -10 49 0 39 -21 -12
-26 -44 -4 -82 15 -70 34 9 15 33 16 41 2z m-1784 -53 c9 -15 8 -18 -7 -15
-10 1 -21 16 -25 31 -7 24 -6 27 7 16 8 -7 20 -21 25 -32z m11134 33 c-3 -5
-11 -10 -16 -10 -6 0 -7 5 -4 10 3 6 11 10 16 10 6 0 7 -4 4 -10z m1420 -10
c10 -11 29 -20 42 -20 12 0 23 -4 23 -10 0 -18 -46 -11 -74 11 -26 20 -34 39
-18 39 5 0 17 -9 27 -20z m1185 -9 c0 -23 -25 -34 -39 -17 -7 9 -7 16 1 24 18
18 38 14 38 -7z m-12010 -41 c0 -5 9 -10 20 -10 11 0 20 -4 20 -10 0 -13 -16
-13 -41 0 -20 11 -26 30 -9 30 6 0 10 -4 10 -10z m1858 -18 c2 -7 -6 -12 -17
-12 -21 0 -27 11 -14 24 9 9 26 2 31 -12z m5070 6 c-6 -18 -28 -21 -28 -4 0 9
7 16 16 16 9 0 14 -5 12 -12z m3722 -12 c0 -15 -37 -32 -47 -22 -9 8 17 36 33
36 8 0 14 -6 14 -14z m-10530 -17 c0 -5 -9 -9 -20 -9 -13 0 -18 5 -14 14 6 15
34 11 34 -5z m42 5 c-24 -17 -39 -14 -27 5 3 6 16 11 28 11 l21 0 -22 -16z
m10448 -52 c0 -10 -12 -31 -27 -45 -16 -15 -36 -36 -45 -47 -22 -24 -37 -25
-45 -4 -4 11 10 31 48 65 60 53 69 57 69 31z m-10632 -4 c-3 -8 -21 -13 -43
-13 -22 0 -40 5 -42 13 -3 8 9 12 42 12 33 0 45 -4 43 -12z m82 -8 c0 -13 -20
-13 -40 0 -12 8 -9 10 13 10 15 0 27 -4 27 -10z m147 -5 c9 -24 -1 -27 -15 -5
-8 13 -8 20 -2 20 6 0 13 -7 17 -15z m10813 -25 c0 -12 -28 -25 -36 -17 -9 9
6 27 22 27 8 0 14 -5 14 -10z m-387 -48 c16 -17 14 -32 -4 -32 -11 0 -39 30
-39 41 0 15 26 10 43 -9z m-10516 -39 c3 -8 -7 -11 -34 -8 -50 4 -52 6 -23 15
32 11 52 8 57 -7z m1891 -16 c2 -16 -2 -35 -8 -42 -10 -13 -16 -12 -40 0 -53
27 -43 79 15 73 25 -2 31 -8 33 -31z m8719 16 c5 -14 -40 -28 -57 -18 -8 5 -8
11 1 21 14 17 51 15 56 -3z m-3992 -53 c0 -7 -6 -15 -12 -17 -8 -3 -13 4 -13
17 0 13 5 20 13 18 6 -3 12 -11 12 -18z m3913 -23 c2 -28 9 -41 25 -48 25 -11
52 -79 33 -79 -7 0 -17 5 -24 12 -9 9 -12 9 -12 0 0 -15 -57 -45 -70 -37 -20
12 -9 27 30 42 51 21 54 48 6 68 -44 19 -51 31 -35 61 19 36 43 26 47 -19z
m-1478 23 c0 -5 -7 -10 -15 -10 -8 0 -15 5 -15 10 0 6 7 10 15 10 8 0 15 -4
15 -10z m-9125 -19 c5 -1 5 -5 -1 -11 -12 -12 -74 -2 -74 11 0 5 15 7 33 5 17
-3 36 -5 42 -5z m2000 -27 c22 -22 14 -38 -19 -42 -32 -4 -56 13 -56 39 0 24
51 26 75 3z m1874 -233 c429 -527 495 -607 519 -641 15 -19 83 -105 152 -190
292 -362 420 -534 407 -547 -9 -8 -86 77 -189 210 -55 70 -145 183 -202 250
-56 67 -121 148 -144 179 -24 32 -75 97 -115 145 -340 410 -647 808 -647 839
0 17 61 -52 219 -245z m-4331 171 c2 -7 -6 -12 -17 -12 -21 0 -27 11 -14 24 9
9 26 2 31 -12z m6089 1 c-9 -9 -19 -14 -23 -11 -10 10 6 28 24 28 15 0 15 -1
-1 -17z m5279 -24 c3 -6 2 -15 -2 -19 -12 -12 -38 5 -30 19 9 14 23 14 32 0z
m-11106 -14 c0 -8 -6 -15 -14 -15 -17 0 -28 14 -19 24 12 12 33 6 33 -9z
m2218 -58 c3 -22 -1 -27 -18 -27 -23 0 -35 22 -26 46 10 25 41 12 44 -19z
m6702 23 c0 -12 -28 -25 -36 -17 -9 9 6 27 22 27 8 0 14 -5 14 -10z m1843 -24
c9 -22 -19 -54 -33 -40 -9 9 -9 17 -1 33 13 24 27 27 34 7z m-11333 -45 c0
-26 -17 -36 -35 -21 -18 15 -8 40 16 40 12 0 19 -7 19 -19z m7570 4 c0 -8 -7
-15 -15 -15 -8 0 -15 7 -15 15 0 8 7 15 15 15 8 0 15 -7 15 -15z m1700 -60 c0
-8 -9 -15 -20 -15 -11 0 -20 7 -20 15 0 8 9 15 20 15 11 0 20 -7 20 -15z
m2060 -41 c0 -9 -5 -14 -12 -12 -18 6 -21 28 -4 28 9 0 16 -7 16 -16z m-8524
-39 c8 -34 -1 -55 -25 -55 -22 0 -38 38 -27 65 9 25 45 18 52 -10z m-2626 0
c0 -8 -6 -15 -14 -15 -17 0 -28 14 -19 24 12 12 33 6 33 -9z m11770 -5 c0 -5
-9 -10 -20 -10 -11 0 -20 5 -20 10 0 6 9 10 20 10 11 0 20 -4 20 -10z m-520
-40 c0 -5 -7 -10 -15 -10 -8 0 -15 5 -15 10 0 6 7 10 15 10 8 0 15 -4 15 -10z
m-2016 -75 c-26 -63 -113 -202 -186 -299 -40 -53 -178 -235 -307 -406 -128
-170 -237 -310 -242 -310 -11 0 -6 9 126 205 164 243 233 340 355 489 63 77
143 184 178 236 89 133 102 147 76 85z m-9394 10 c0 -8 -7 -15 -15 -15 -16 0
-20 12 -8 23 11 12 23 8 23 -8z m11388 -47 c-6 -18 -28 -21 -28 -4 0 9 7 16
16 16 9 0 14 -5 12 -12z m-38 -68 c0 -5 -8 -14 -18 -19 -26 -14 -45 5 -31 31
8 14 14 16 29 8 11 -6 20 -15 20 -20z m-6025 -91 c0 -7 -8 -15 -17 -17 -18 -3
-25 18 -11 32 10 10 28 1 28 -15z m5995 -101 c0 -28 -2 -29 -37 -26 -43 4 -52
19 -24 47 28 28 61 17 61 -21z m-1442 14 c2 -7 -3 -12 -12 -12 -9 0 -16 7 -16
16 0 17 22 14 28 -4z m588 -87 c-3 -8 -10 -15 -16 -15 -14 0 -12 37 3 43 15 5
21 -8 13 -28z m-11233 -54 c0 -18 -3 -35 -6 -38 -13 -12 -27 11 -27 43 0 28 3
35 18 32 12 -3 17 -13 15 -37z m11807 25 c0 -18 -16 -29 -30 -21 -13 8 -1 35
16 35 8 0 14 -6 14 -14z m308 -38 c-2 -17 -11 -24 -30 -26 -34 -4 -36 11 -6
32 31 22 40 20 36 -6z m-1120 0 c-7 -19 -38 -22 -38 -4 0 10 9 16 21 16 12 0
19 -5 17 -12z m225 -13 c-6 -16 -16 -19 -26 -8 -9 8 13 34 24 28 4 -3 6 -12 2
-20z m-8095 -7 c2 -9 -5 -18 -14 -22 -22 -9 -27 -2 -19 24 7 23 28 22 33 -2z
m4750 -20 c-6 -18 -28 -21 -28 -4 0 9 7 16 16 16 9 0 14 -5 12 -12z m1012 -54
c0 -8 -9 -14 -20 -14 -22 0 -28 26 -7 33 16 6 27 -1 27 -19z m-4775 -14 c0
-32 -30 -39 -45 -10 -14 26 -4 42 23 38 16 -2 22 -10 22 -28z m7085 20 c0 -5
-7 -10 -15 -10 -8 0 -15 5 -15 10 0 6 7 10 15 10 8 0 15 -4 15 -10z m-11190
-65 c0 -28 -4 -35 -20 -35 -15 0 -20 7 -20 28 0 32 7 42 27 42 8 0 13 -12 13
-35z m10725 -56 c8 -24 -16 -55 -34 -45 -12 8 -15 49 -4 59 13 14 32 7 38 -14z
m1021 10 c9 -15 -13 -28 -37 -22 -20 5 -24 15 -12 26 10 11 41 8 49 -4z
m-11738 -76 c-3 -43 -8 -59 -19 -61 -13 -2 -16 8 -17 58 -1 53 1 60 19 60 18
0 20 -6 17 -57z m3782 27 c0 -25 -4 -30 -25 -30 -14 0 -28 7 -31 15 -10 25 4
45 31 45 21 0 25 -5 25 -30z m7170 6 c0 -14 -29 -31 -38 -22 -2 3 -2 12 1 21
8 19 37 20 37 1z m-1890 -32 c0 -19 -28 -30 -42 -16 -8 8 -8 15 1 26 14 17 41
10 41 -10z m1888 -46 c-5 -15 -42 -22 -66 -13 -14 5 -14 7 -2 15 23 15 72 12
68 -2z m4514 -5 c2 -9 1 -41 -2 -71 -5 -58 -23 -81 -55 -68 -14 5 -16 14 -11
47 4 23 13 56 21 75 15 36 41 46 47 17z m-7662 -39 c0 -21 -5 -24 -39 -24 -48
0 -62 17 -33 40 30 25 72 15 72 -16z m3750 6 c0 -12 -28 -25 -36 -17 -9 9 6
27 22 27 8 0 14 -5 14 -10z m-8451 -160 c240 -176 392 -290 542 -407 79 -62
210 -163 290 -225 169 -130 366 -284 524 -408 61 -48 211 -165 334 -261 123
-96 265 -206 315 -246 50 -39 213 -164 361 -277 149 -113 374 -289 500 -391
127 -102 282 -221 346 -265 182 -124 711 -549 717 -576 2 -8 1 -14 -3 -14 -13
0 -98 64 -218 163 -136 113 -217 176 -517 399 -113 84 -295 225 -405 313 -110
88 -290 229 -400 312 -275 210 -660 508 -896 693 -108 85 -244 191 -301 234
-56 44 -139 109 -183 146 -88 73 -185 147 -380 295 -71 54 -152 117 -180 140
-54 45 -225 176 -455 348 -174 131 -201 153 -193 160 7 8 33 -9 202 -133z
m7611 110 c0 -15 -27 -23 -47 -16 -15 6 -15 8 -3 16 20 13 50 12 50 0z m-8690
-105 c68 -152 188 -296 315 -377 75 -49 244 -135 365 -188 41 -18 81 -38 89
-46 84 -79 -360 121 -507 230 -109 80 -229 231 -286 360 -28 63 -32 86 -16 86
6 0 24 -29 40 -65z m9000 31 c0 -20 -28 -28 -52 -15 -17 9 -18 13 -7 20 22 14
59 11 59 -5z m-7356 -17 c-18 -29 -144 -54 -144 -29 0 6 17 10 38 10 21 0 47
7 58 15 23 17 58 20 48 4z m5094 -26 c2 -8 -5 -13 -17 -13 -12 0 -21 6 -21 16
0 18 31 15 38 -3z m1830 -29 c-5 -26 -38 -31 -38 -7 0 24 21 46 33 34 5 -5 7
-17 5 -27z m215 -6 c7 -23 -4 -38 -29 -38 -27 0 -28 3 -14 31 12 21 36 25 43
7z m-6788 -8 c9 -14 -13 -50 -31 -50 -8 0 -17 7 -20 15 -11 29 35 61 51 35z
m7766 -33 c-1 -4 -1 -30 -1 -58 0 -36 -4 -49 -12 -46 -8 2 -12 18 -11 38 1 19
2 45 2 57 1 13 6 22 12 20 6 -2 10 -7 10 -11z m4802 -34 c5 -29 -7 -63 -23
-63 -11 0 -14 83 -4 93 11 11 21 -1 27 -30z m-9053 14 c0 -17 -20 -37 -37 -37
-19 0 -16 27 5 39 23 14 32 13 32 -2z m4375 -57 c7 -12 -12 -40 -26 -40 -10 0
-12 34 -2 43 9 10 21 9 28 -3z m-5797 -54 c5 -43 -6 -76 -26 -76 -26 0 -42 20
-42 51 0 57 62 80 68 25z m5670 -43 c-3 -42 -28 -59 -28 -20 0 32 9 57 22 57
5 0 8 -17 6 -37z m-6806 5 c-9 -9 -15 -9 -24 0 -9 9 -7 12 12 12 19 0 21 -3
12 -12z m1584 -59 c18 -36 8 -55 -24 -45 -20 7 -32 33 -32 74 0 20 3 21 20 12
11 -6 27 -24 36 -41z m3802 19 c-4 -30 -48 -39 -48 -10 0 10 3 22 7 25 3 4 15
7 25 7 14 0 19 -6 16 -22z m590 -29 c4 -21 -34 -31 -48 -13 -7 7 -9 18 -5 24
10 16 49 8 53 -11z m-10630 -16 c2 -8 -5 -13 -17 -13 -21 0 -35 13 -24 24 10
10 36 3 41 -11z m11460 -30 c2 -22 -3 -38 -17 -52 -13 -13 -16 -21 -8 -24 7
-2 5 -3 -3 -3 -16 1 -27 74 -16 103 11 27 41 10 44 -24z m-1238 0 c0 -12 -33
-43 -47 -43 -20 0 -16 16 10 33 24 17 37 21 37 10z m-4205 -44 c4 -5 4 -21 1
-35 -5 -20 -12 -25 -33 -22 -34 4 -39 22 -14 47 23 23 37 26 46 10z m2383 -48
c3 -8 -1 -12 -9 -9 -7 2 -15 10 -17 17 -3 8 1 12 9 9 7 -2 15 -10 17 -17z
m-1783 -16 c0 -11 -7 -21 -16 -23 -18 -3 -33 23 -23 39 10 17 39 5 39 -16z
m4843 -52 c-3 -33 -7 -38 -30 -41 -27 -3 -28 -1 -28 37 0 39 1 41 31 41 29 0
30 -2 27 -37z m-1553 7 c0 -8 -10 -16 -22 -18 -22 -3 -32 16 -16 32 12 11 38
2 38 -14z m-2561 -45 c7 -19 -17 -30 -41 -20 -17 6 -17 7 1 21 25 18 32 18 40
-1z m1486 -13 c0 -19 -18 -42 -32 -42 -12 0 -9 35 4 48 17 17 28 15 28 -6z
m1255 -12 c7 -11 -11 -40 -24 -40 -3 0 -13 5 -21 10 -13 9 -12 12 4 25 23 18
33 19 41 5z m1055 -5 c0 -8 -4 -15 -10 -15 -5 0 -7 7 -4 15 4 8 8 15 10 15 2
0 4 -7 4 -15z m317 -235 c1 -135 4 -254 7 -264 7 -28 -9 -51 -44 -66 -41 -17
-38 -30 5 -23 48 8 56 -16 25 -73 -23 -41 -105 -114 -128 -114 -11 0 -18 18
-25 70 -3 25 -3 25 -12 -4 -5 -19 -4 -41 4 -60 10 -27 9 -32 -6 -41 -9 -5
-107 -82 -217 -170 -111 -88 -264 -209 -341 -269 -186 -145 -347 -280 -475
-397 -58 -53 -157 -142 -220 -199 -63 -57 -160 -147 -215 -200 -55 -52 -157
-145 -227 -205 -148 -128 -398 -357 -546 -500 -57 -55 -109 -101 -116 -103 -7
-1 -25 21 -41 50 -16 29 -69 115 -118 192 -87 135 -169 280 -181 322 -5 17 15
43 107 135 62 63 157 166 211 229 113 133 202 208 375 316 337 210 574 335
1171 617 294 139 386 178 575 242 61 20 119 41 130 46 38 17 169 58 175 54 4
-2 15 10 25 28 16 26 21 62 26 192 4 88 8 199 8 248 l1 87 33 1 32 1 -26 9
c-49 18 -49 103 0 97 l26 -3 2 -245z m-8462 13 c21 -10 35 -24 35 -35 0 -21
-22 -23 -50 -6 -16 10 -24 10 -40 0 -18 -11 -20 -10 -20 12 0 14 8 30 18 35
22 13 16 14 57 -6z m4055 -10 c-1 -20 -19 -34 -41 -31 -22 3 -22 4 -5 21 18
17 46 23 46 10z m2577 -49 c3 -9 0 -20 -8 -25 -21 -13 -29 -11 -29 9 0 33 26
44 37 16z m1521 -17 c4 -33 -13 -57 -39 -57 -22 0 -23 11 -7 57 15 41 42 40
46 0z m2719 6 c-17 -55 -34 -92 -39 -87 -3 3 -9 0 -14 -7 -4 -8 -3 -10 4 -5 7
4 12 1 12 -9 0 -23 -66 -196 -112 -295 -22 -47 -51 -116 -65 -155 -34 -93
-154 -333 -211 -420 -25 -38 -68 -115 -96 -170 -67 -132 -231 -376 -403 -600
l-138 -180 -91 -45 c-179 -91 -567 -217 -1009 -330 -303 -77 -510 -120 -890
-185 -415 -71 -605 -91 -605 -64 0 8 -4 8 -13 1 -19 -16 -246 -49 -459 -68
-337 -30 -310 -29 -306 -8 2 10 17 25 33 33 17 8 73 42 125 76 52 34 150 91
217 126 67 35 119 67 117 71 -2 3 1 10 7 14 8 4 9 3 5 -4 -9 -15 9 -15 35 -2
22 12 26 35 4 26 -40 -15 4 13 233 149 136 81 348 208 472 283 124 74 243 145
265 157 174 97 523 302 633 371 75 47 275 165 446 264 171 98 460 268 641 377
182 110 465 277 630 373 252 145 426 249 530 316 29 19 48 17 42 -3z m-5632
-31 c3 -16 -3 -179 -15 -364 -11 -184 -24 -454 -30 -599 -14 -371 -28 -612
-46 -768 -17 -163 -33 -463 -36 -704 l-3 -178 25 -5 c137 -27 499 -196 468
-219 -4 -2 -705 12 -975 20 -123 4 -223 11 -223 15 0 13 99 83 219 154 97 58
123 69 173 73 49 5 59 9 63 27 44 200 130 796 160 1097 8 85 21 202 29 260 8
57 17 140 21 184 8 100 12 115 33 116 15 1 15 2 0 6 -22 6 -22 0 2 196 10 89
24 230 30 312 6 83 18 192 25 243 13 91 12 120 -8 133 -19 13 5 29 43 29 34 0
39 -3 45 -28z m-1801 -25 c15 -19 26 -42 26 -52 0 -17 -1 -17 -21 1 -19 17
-49 65 -49 79 0 15 22 1 44 -28z m4146 19 c0 -3 -4 -8 -10 -11 -5 -3 -10 -1
-10 4 0 6 5 11 10 11 6 0 10 -2 10 -4z m-7610 -17 c0 -15 -33 -69 -42 -69 -16
0 -8 59 10 69 22 14 32 14 32 0z m6940 -24 c0 -8 -9 -15 -20 -15 -20 0 -26 11
-13 23 12 13 33 7 33 -8z m-7772 -186 c90 -49 223 -117 295 -151 322 -153
1338 -670 1544 -786 49 -27 156 -84 238 -127 83 -43 310 -165 505 -270 195
-106 450 -241 565 -300 116 -60 298 -159 405 -220 172 -99 345 -194 505 -279
28 -14 93 -52 145 -84 85 -51 95 -60 98 -89 3 -28 0 -32 -34 -43 -50 -17 -206
-6 -304 20 -41 11 -104 20 -140 20 -96 0 -564 59 -915 115 -592 94 -1330 275
-1762 431 -243 88 -272 107 -364 242 -29 42 -84 115 -123 162 -39 47 -80 97
-92 112 -11 15 -79 59 -150 99 -71 39 -153 90 -182 113 -96 75 -115 86 -200
113 -58 18 -88 33 -99 49 -8 13 -52 44 -97 68 -101 55 -232 141 -359 234 -52
39 -141 101 -198 138 -103 69 -121 96 -32 51 26 -14 118 -74 204 -134 85 -60
205 -140 265 -178 60 -37 129 -83 154 -101 25 -18 93 -57 150 -86 121 -62 320
-177 406 -235 89 -59 85 -58 72 -21 -6 18 -38 69 -71 113 -70 94 -261 383
-335 506 -28 47 -84 152 -125 235 -76 151 -189 382 -196 397 -4 10 11 2 227
-114z m520 75 c-5 -28 -28 -29 -28 -1 0 13 3 27 7 31 10 10 25 -10 21 -30z
m3884 14 c17 17 38 15 38 -3 0 -16 -21 -29 -61 -39 -20 -4 -28 -2 -32 12 -2 9
-8 26 -13 36 -7 19 -7 19 24 0 25 -14 34 -16 44 -6z m-6586 -69 c7 -12 -15
-31 -28 -23 -4 3 -8 12 -8 20 0 17 26 19 36 3z m9644 1 c0 -5 -4 -10 -10 -10
-5 0 -10 5 -10 10 0 6 5 10 10 10 6 0 10 -4 10 -10z m-3019 -30 c36 0 40 -2
29 -15 -7 -8 -18 -15 -25 -15 -7 0 -18 -7 -25 -15 -11 -13 -9 -20 11 -41 20
-21 29 -24 61 -19 47 8 50 -8 9 -33 l-30 -18 24 -30 c30 -36 31 -54 5 -54 -19
0 -50 44 -50 72 0 7 -9 24 -20 38 -11 14 -20 32 -20 41 0 9 -11 29 -25 45 -31
36 -35 70 -6 54 11 -5 39 -10 62 -10z m1034 -250 c3 -5 -3 -10 -15 -10 -12 0
-18 5 -15 10 3 6 10 10 15 10 5 0 12 -4 15 -10z m-929 -37 c10 -35 79 -169
106 -206 15 -21 24 -45 22 -52 -4 -10 0 -12 16 -8 29 8 53 47 45 73 -8 25 3
26 21 3 29 -38 7 -78 -53 -97 -29 -9 -29 -18 2 -54 16 -19 23 -36 19 -47 -4
-10 1 -22 14 -31 20 -14 21 -21 16 -97 -6 -90 -17 -107 -66 -107 -36 0 -36 13
2 40 24 17 29 27 24 45 -4 17 0 27 15 37 28 17 27 28 -3 28 -48 0 -76 57 -34
68 l22 5 -23 8 c-12 5 -27 22 -33 39 -10 30 -11 30 -59 24 -33 -4 -54 -2 -64
6 -26 21 -17 27 35 22 50 -5 55 -1 51 36 -1 6 3 12 10 12 8 0 8 4 -1 15 -17
21 -47 73 -66 115 -9 19 -26 49 -38 65 -27 35 -37 61 -29 69 13 13 44 5 49
-11z m402 -95 c16 -16 15 -38 -2 -38 -18 0 -39 27 -31 40 8 13 18 13 33 -2z
m-6818 -27 c8 -15 6 -24 -7 -36 -16 -16 -17 -16 -30 1 -14 20 -17 37 -6 47 12
13 32 7 43 -12z m6375 10 c8 -14 -13 -24 -33 -16 -14 5 -14 7 -2 15 19 12 27
12 35 1z m792 -97 c-3 -4 -14 -3 -24 0 -15 6 -15 8 -3 16 16 10 39 -4 27 -16z
m-473 -108 c-3 -9 6 -19 25 -27 34 -15 39 -27 16 -35 -40 -16 -96 26 -64 47 9
6 10 9 2 9 -6 0 -15 -4 -18 -10 -7 -12 20 -94 40 -123 8 -12 15 -34 15 -49 0
-21 5 -28 20 -28 11 0 23 -7 26 -15 6 -14 8 -13 19 1 7 11 14 13 18 7 4 -6 -5
-23 -19 -38 l-25 -27 26 -33 c14 -19 25 -47 25 -63 0 -17 6 -32 15 -35 17 -7
45 -70 45 -104 0 -15 -8 -27 -22 -34 l-23 -10 23 5 c27 5 29 -14 3 -38 -12
-11 -21 -13 -24 -6 -3 6 -4 5 -3 -2 2 -7 -1 -23 -5 -35 -15 -40 6 -25 36 27
17 27 37 50 46 50 9 0 25 -21 39 -52 14 -29 36 -69 51 -88 34 -46 120 -202
202 -368 36 -73 90 -167 120 -210 29 -42 73 -105 97 -140 27 -38 40 -65 34
-71 -16 -15 -362 -42 -734 -56 -85 -4 -182 -11 -214 -16 -33 -4 -62 -7 -64 -4
-7 7 16 38 134 186 180 225 276 366 292 428 17 65 57 130 89 142 13 5 23 13
23 19 0 13 -17 13 -26 -1 -4 -8 -9 -7 -15 2 -7 11 -9 11 -9 -2 0 -9 -10 -28
-21 -43 -20 -26 -22 -26 -41 -10 -26 24 -21 68 10 72 18 3 21 8 16 28 -4 15 0
34 10 49 25 39 2 29 -25 -10 -39 -57 -69 -58 -69 -2 0 18 -7 41 -15 51 -24 31
-19 65 10 72 14 3 25 10 25 15 0 12 -17 11 -40 -1 -16 -8 -22 -6 -35 13 -16
24 -33 147 -21 147 24 0 43 -22 44 -51 0 -18 8 -39 17 -48 16 -15 16 -13 9 29
-4 25 -8 54 -8 65 0 11 -6 26 -13 33 -7 7 -13 23 -13 35 0 12 -16 49 -36 82
-63 103 -75 126 -69 135 3 5 0 12 -5 15 -11 7 -20 26 -34 72 -10 32 48 87 75
72 10 -5 16 -15 13 -23z m-6038 -13 c8 -29 -17 -56 -42 -46 -14 5 -20 54 -7
66 16 17 43 6 49 -20z m257 -5 c5 -16 -10 -48 -23 -48 -11 0 -14 43 -3 53 10
11 21 8 26 -5z m-1083 -27 c0 -12 -20 -25 -27 -18 -7 7 6 27 18 27 5 0 9 -4 9
-9z m-435 -195 c-4 -22 -12 -49 -17 -59 -9 -17 -11 -16 -29 7 -21 27 -16 58
16 90 25 25 37 10 30 -38z m9397 -7 c-3 -26 -19 -40 -39 -32 -18 7 -16 23 4
45 21 24 39 17 35 -13z m-1131 -31 c22 -28 24 -71 4 -88 -9 -8 -27 -10 -47 -6
-38 7 -38 7 -100 0 -60 -7 -62 6 -5 44 23 16 51 39 61 51 25 27 63 27 87 -1z
m-7796 -18 c18 -35 11 -98 -11 -107 -17 -6 -84 34 -84 51 0 7 9 21 20 31 11
10 20 26 20 37 0 30 37 22 55 -12z m489 24 c29 -11 12 -64 -20 -64 -18 0 -28
39 -14 55 14 17 13 17 34 9z m454 -27 c2 -15 0 -27 -5 -27 -13 0 -34 40 -27
51 10 17 29 4 32 -24z m5906 0 c24 -18 19 -90 -7 -95 -30 -6 -47 17 -47 64 0
36 3 44 18 44 10 0 26 -6 36 -13z m-6032 -44 c17 -15 19 -15 36 0 22 20 52 22
52 4 0 -35 -56 -50 -84 -22 -8 9 -19 15 -23 15 -4 -1 -9 3 -11 9 -5 16 9 13
30 -6z m-1292 -14 c0 -6 7 -17 15 -25 8 -9 15 -31 15 -49 0 -31 -3 -34 -29
-33 -20 1 -28 5 -24 14 3 8 9 14 14 14 12 0 11 47 -1 55 -5 3 -10 13 -10 21 0
8 5 14 10 14 6 0 10 -5 10 -11z m1589 -21 c6 -16 5 -27 -4 -37 -12 -12 -17
-12 -39 3 -40 25 -34 56 11 56 15 0 27 -8 32 -22z m-468 -27 c-7 -12 -18 -21
-26 -21 -19 0 -19 10 1 39 21 29 41 14 25 -18z m-692 -52 c35 -12 38 -21 16
-39 -29 -24 -88 11 -69 41 7 12 14 11 53 -2z m8596 -19 c8 -13 -13 -40 -31
-40 -8 0 -14 10 -14 25 0 18 5 25 19 25 11 0 23 -5 26 -10z m285 6 c0 -21 -17
-36 -39 -36 -34 0 -44 9 -30 27 10 11 69 19 69 9z m-580 -18 c0 -14 -40 -58
-52 -58 -15 0 -8 23 14 47 24 25 38 29 38 11z m390 -7 c0 -23 -25 -46 -35 -32
-7 13 12 51 25 51 6 0 10 -8 10 -19z m-8713 -87 c7 -20 -16 -95 -35 -111 -16
-14 -42 -7 -42 12 0 7 7 18 15 25 12 10 12 15 -2 36 -12 19 -13 27 -3 39 16
20 59 19 67 -1z m1157 -30 c9 -3 16 -17 16 -30 0 -19 -5 -24 -24 -24 -28 0
-42 26 -25 46 13 16 12 16 33 8z m14114 -53 c3 -22 -13 -51 -28 -51 -13 0 -19
43 -9 62 13 24 33 18 37 -11z m-9083 -11 c8 -13 -12 -40 -29 -40 -22 0 -39 18
-33 34 7 18 52 22 62 6z m-6274 -166 c19 -24 60 -41 98 -42 42 -1 65 -22 56
-51 -8 -25 -46 -28 -66 -5 -7 9 -22 14 -36 11 -15 -3 -32 4 -49 20 -14 13 -37
31 -50 40 -13 8 -24 22 -24 29 0 19 54 18 71 -2z m243 -60 c9 -3 16 -17 16
-30 0 -41 -69 -44 -70 -2 0 7 28 38 35 38 2 0 10 -3 19 -6z m15086 -19 c11
-29 4 -55 -16 -55 -14 0 -20 60 -7 73 10 11 13 9 23 -18z m-14887 -26 c16 -26
1 -49 -33 -49 -23 0 -33 6 -39 23 -17 41 48 64 72 26z m69 -159 c-2 -16 -8
-33 -13 -36 -11 -6 -11 3 -3 45 8 39 22 32 16 -9z m88 -6 c0 -31 -2 -35 -15
-24 -8 7 -15 23 -15 36 0 15 6 24 15 24 11 0 15 -11 15 -36z m15205 -58 c-10
-125 -13 -136 -41 -136 -19 0 -24 5 -24 25 0 56 24 177 37 191 27 27 35 5 28
-80z m-15160 4 c-3 -5 -10 -10 -16 -10 -5 0 -9 5 -9 10 0 6 7 10 16 10 8 0 12
-4 9 -10z m145 -34 c0 -3 -4 -8 -10 -11 -5 -3 -10 -1 -10 4 0 6 5 11 10 11 6
0 10 -2 10 -4z m12120 -9 c0 -2 -10 -12 -22 -23 l-23 -19 19 23 c18 21 26 27
26 19z m-12452 -30 c4 -20 -25 -34 -40 -19 -15 15 -1 44 19 40 10 -2 19 -11
21 -21z m565 -1 c3 -8 3 -17 0 -20 -16 -16 -60 5 -49 23 10 16 43 14 49 -3z
m11812 -66 c-10 -11 -20 -18 -23 -15 -3 3 3 14 13 25 10 11 20 18 23 15 3 -3
-3 -14 -13 -25z m-12378 -6 c8 -21 -13 -42 -28 -27 -13 13 -5 43 11 43 6 0 13
-7 17 -16z m587 -139 c7 -20 -3 -45 -20 -45 -16 0 -33 30 -27 48 6 17 40 15
47 -3z m-682 -107 c-15 -15 -26 -4 -18 18 5 13 9 15 18 6 9 -9 9 -15 0 -24z
m-235 10 c6 -7 13 -24 16 -37 l6 -23 -25 23 c-24 22 -32 49 -15 49 5 0 13 -6
18 -12z m1035 -25 c22 -19 24 -63 4 -63 -22 0 -46 29 -46 56 0 28 16 31 42 7z
m-262 -43 c0 -5 -4 -10 -10 -10 -5 0 -10 5 -10 10 0 6 5 10 10 10 6 0 10 -4
10 -10z m3140 -16 c-8 -8 -23 -20 -34 -25 -13 -7 -9 -1 9 15 34 29 43 33 25
10z m-3065 -34 c0 -20 -6 -26 -27 -28 -35 -4 -58 31 -31 47 30 18 58 9 58 -19z
m1703 -87 c-5 -25 -28 -28 -28 -4 0 12 6 21 16 21 9 0 14 -7 12 -17z m1162
-36 c0 -2 -10 -12 -22 -23 l-23 -19 19 23 c18 21 26 27 26 19z m-1440 -57 c0
-5 -4 -10 -10 -10 -5 0 -10 5 -10 10 0 6 5 10 10 10 6 0 10 -4 10 -10z m1124
-102 c6 -39 4 -55 -8 -66 -14 -14 -16 -12 -26 13 -10 25 -6 76 7 98 11 19 21
3 27 -45z m-2318 31 c3 -6 0 -15 -7 -20 -22 -14 -29 -11 -29 11 0 21 24 27 36
9z m2473 -11 c-2 -2 -22 -19 -44 -38 l-40 -35 34 38 c19 20 39 37 45 37 5 0 7
-1 5 -2z m-551 -178 c1 -14 -2 -31 -7 -39 -14 -22 -31 -3 -31 35 0 28 4 35 18
32 10 -2 18 -14 20 -28z m197 -142 c-50 -45 -171 -161 -270 -258 -99 -96 -200
-191 -225 -209 -25 -19 0 8 55 59 55 52 165 158 245 236 134 131 269 253 280
254 2 0 -36 -37 -85 -82z m-2644 40 c11 -21 11 -22 -4 -9 -10 7 -17 17 -17 22
0 15 9 10 21 -13z m7452 -330 c4 -189 8 -811 9 -1383 1 -572 6 -1565 11 -2206
l9 -1166 -21 -48 c-12 -27 -25 -45 -29 -40 -4 4 -176 172 -382 374 -454 443
-507 496 -1070 1066 l-445 451 66 144 c36 80 119 255 184 390 65 135 137 286
160 335 24 50 75 158 115 240 39 83 133 283 208 445 75 162 212 448 305 634
162 327 168 340 156 370 -14 32 -158 302 -224 416 -74 130 -107 202 -95 210
12 8 203 32 425 55 77 8 201 21 275 29 194 22 198 23 271 24 l66 2 6 -342z
m-7023 137 c0 -21 -15 -26 -35 -11 -26 19 -13 51 15 36 11 -6 20 -17 20 -25z
m2470 -39 c0 -19 -27 -46 -46 -46 -17 0 -19 31 -2 48 17 17 48 15 48 -2z
m-3187 -237 c50 -14 43 -35 -9 -30 -46 4 -54 8 -54 27 0 17 12 17 63 3z m183
-11 c4 -6 -1 -17 -12 -25 -23 -17 -106 -13 -112 5 -3 9 3 11 21 6 17 -4 34 0
49 10 27 19 44 20 54 4z m1894 -375 c-123 -126 -231 -235 -239 -243 -8 -8 -4
0 9 18 25 38 435 452 446 452 4 0 -93 -102 -216 -227z m-2048 -129 c13 -8 -11
-34 -25 -28 -7 2 -18 13 -24 23 -11 18 -10 19 14 15 15 -3 31 -7 35 -10z
m12404 -205 c12 -21 -12 -30 -54 -21 -38 9 -161 2 -234 -14 -31 -6 -38 9 -10
22 38 17 288 28 298 13z m-569 -56 c6 -16 -8 -32 -53 -59 -18 -11 -17 -13 9
-23 35 -14 61 -1 62 30 0 27 23 37 32 14 4 -11 -1 -23 -14 -34 -10 -9 -27 -28
-36 -43 -22 -36 -43 -35 -62 2 -17 34 -20 83 -5 111 13 24 58 25 67 2z m-324
-17 c6 -15 -11 -36 -29 -36 -14 0 -23 20 -16 38 6 16 39 15 45 -2z m-11210
-48 c7 -21 -4 -38 -24 -38 -24 0 -37 29 -18 41 20 12 37 11 42 -3z m11227
-463 c0 -8 -6 -15 -14 -15 -17 0 -28 14 -19 24 12 12 33 6 33 -9z m-10550
-280 c-41 -41 -77 -75 -81 -75 -7 0 143 150 151 150 2 0 -29 -34 -70 -75z
m-430 -282 c0 -16 3 -38 6 -50 5 -18 1 -23 -20 -29 -34 -8 -39 -3 -27 27 5 13
12 36 15 52 4 15 11 27 16 27 6 0 10 -12 10 -27z m91 -70 c-24 -34 -68 -83
-60 -68 3 5 20 29 38 53 36 46 55 59 22 15z m-151 -207 c0 -2 -8 -10 -17 -17
-16 -13 -17 -12 -4 4 13 16 21 21 21 13z m70 -1272 c0 -16 -16 -19 -25 -4 -8
13 4 32 16 25 5 -4 9 -13 9 -21z m100 -1149 c0 -8 -7 -15 -15 -15 -16 0 -20
12 -8 23 11 12 23 8 23 -8z m7108 -437 c2 -8 -9 -29 -23 -46 -14 -16 -25 -35
-25 -41 0 -14 -10 -14 -30 -1 -13 9 -13 12 0 23 9 6 24 29 34 50 17 38 38 45
44 15z m-7053 -738 c0 -8 -8 -16 -17 -18 -13 -2 -18 3 -18 18 0 15 5 20 18 18
9 -2 17 -10 17 -18z m13205 -465 c10 -12 10 -18 0 -30 -16 -19 -40 -19 -65 -1
-16 12 -17 16 -6 30 17 20 55 21 71 1z m-272 -22 l-3 -28 -90 4 c-79 3 -115
14 -99 30 7 7 90 18 147 20 47 1 48 0 45 -26z m-12318 -1219 c0 -8 -6 -14 -14
-14 -16 0 -29 27 -20 41 8 13 34 -9 34 -27z"/>
<path d="M10348 29982 c2 -18 -2 -33 -12 -41 -9 -8 -16 -17 -16 -22 0 -10 89
43 90 53 0 13 -32 38 -49 38 -14 0 -17 -6 -13 -28z"/>
<path d="M10554 29996 c11 -9 24 -16 30 -16 12 0 7 5 -24 19 -24 11 -24 11 -6
-3z"/>
<path d="M10473 29957 c21 -21 39 -31 52 -28 14 3 16 6 5 9 -8 3 -28 16 -43
28 -42 35 -50 29 -14 -9z"/>
<path d="M10703 29933 c9 -2 23 -2 30 0 6 3 -1 5 -18 5 -16 0 -22 -2 -12 -5z"/>
<path d="M9914 29538 c-18 -8 -44 -46 -44 -63 0 -14 48 -2 62 14 9 10 24 23
33 29 21 11 12 32 -13 31 -9 0 -27 -5 -38 -11z"/>
<path d="M10002 29542 c-10 -7 -10 -14 3 -38 l15 -29 0 38 c0 41 0 40 -18 29z"/>
<path d="M10111 29454 c-25 -31 -27 -64 -6 -64 10 0 15 10 15 30 0 18 6 33 15
36 8 4 15 10 15 15 0 17 -19 9 -39 -17z"/>
<path d="M9827 29443 c-7 -11 30 -50 38 -41 3 3 -3 16 -13 28 -11 14 -21 19
-25 13z"/>
<path d="M9082 29374 c-1 -15 3 -24 9 -22 6 2 10 7 10 11 -1 4 -1 14 -1 22 0
26 -16 16 -18 -11z"/>
<path d="M10520 29078 l-23 -33 28 27 c16 15 26 30 23 33 -3 4 -16 -9 -28 -27z"/>
<path d="M10554 28985 c-15 -20 -24 -38 -21 -42 4 -3 12 6 18 21 7 14 16 26
20 26 4 0 9 7 13 15 9 24 -1 17 -30 -20z"/>
<path d="M10529 28850 c-13 -10 -20 -19 -16 -20 4 0 17 9 29 20 28 26 17 26
-13 0z"/>
<path d="M10590 28766 c0 -2 8 -10 18 -17 15 -13 16 -12 3 4 -13 16 -21 21
-21 13z"/>
<path d="M10550 28750 c-9 -6 -10 -10 -3 -10 6 0 15 5 18 10 8 12 4 12 -15 0z"/>
<path d="M10508 28733 c7 -3 16 -2 19 1 4 3 -2 6 -13 5 -11 0 -14 -3 -6 -6z"/>
<path d="M10426 28715 c-10 -8 -24 -12 -30 -8 -7 4 -7 1 1 -7 6 -7 9 -20 6
-29 -2 -9 0 -8 8 4 6 11 19 28 27 38 18 21 14 21 -12 2z"/>
<path d="M10638 28685 c-3 -3 -34 -17 -69 -29 -91 -34 -222 -96 -215 -103 3
-3 49 15 103 40 132 61 186 83 196 79 5 -1 6 2 2 8 -7 11 -10 12 -17 5z"/>
<path d="M10100 28573 c0 -4 7 -16 15 -27 15 -20 35 -14 35 11 0 9 -3 13 -6
10 -4 -3 -15 -2 -25 4 -11 5 -19 6 -19 2z"/>
<path d="M9638 28558 c-3 -7 2 -19 9 -27 18 -17 39 0 30 23 -8 19 -34 21 -39
4z"/>
<path d="M10212 28533 c-11 -21 -10 -22 15 -19 50 7 119 29 101 33 -9 3 -26
-1 -37 -6 -27 -15 -58 -14 -63 1 -3 8 -9 5 -16 -9z"/>
<path d="M9608 28464 c-9 -20 -9 -27 2 -34 19 -12 43 15 35 40 -9 27 -23 25
-37 -6z"/>
<path d="M9790 28466 c0 -12 63 -65 71 -60 18 11 8 33 -23 48 -31 16 -48 20
-48 12z"/>
<path d="M10150 28420 c-12 -8 -9 -10 13 -10 16 0 26 4 22 10 -8 12 -16 12
-35 0z"/>
<path d="M10290 28416 c7 -7 13 -7 20 0 6 6 3 10 -10 10 -13 0 -16 -4 -10 -10z"/>
<path d="M10340 28411 c15 -30 30 -35 17 -6 -7 14 -16 25 -20 25 -4 0 -3 -9 3
-19z"/>
<path d="M10045 28410 c-3 -5 -15 -10 -26 -10 -27 0 -28 -65 -1 -72 15 -4 18
-1 14 17 -2 13 4 35 13 49 10 14 15 26 12 26 -3 0 -9 -4 -12 -10z"/>
<path d="M10110 28409 c0 -5 5 -7 10 -4 6 3 10 8 10 11 0 2 -4 4 -10 4 -5 0
-10 -5 -10 -11z"/>
<path d="M9660 28379 c0 -5 5 -7 10 -4 6 3 10 8 10 11 0 2 -4 4 -10 4 -5 0
-10 -5 -10 -11z"/>
<path d="M9690 28363 c0 -4 5 -15 10 -23 8 -13 10 -13 10 2 0 9 -4 20 -10 23
-5 3 -10 3 -10 -2z"/>
<path d="M10290 28338 c-16 -7 -20 -12 -12 -15 8 -3 21 2 30 11 19 18 17 19
-18 4z"/>
<path d="M9877 28323 c-4 -3 -7 -11 -7 -17 0 -6 5 -5 12 2 6 6 9 14 7 17 -3 3
-9 2 -12 -2z"/>
<path d="M11701 28219 c-17 -50 -13 -57 9 -14 23 45 23 45 11 45 -5 0 -14 -14
-20 -31z"/>
<path d="M13030 27876 c0 -19 26 -38 45 -34 14 3 13 6 -5 26 -24 25 -40 29
-40 8z"/>
<path d="M13457 27608 c-7 -25 -3 -33 12 -23 13 8 15 45 2 45 -5 0 -11 -10
-14 -22z"/>
<path d="M13435 27521 c-3 -6 -2 -27 4 -47 9 -33 7 -38 -20 -65 -16 -15 -29
-37 -29 -49 0 -12 -7 -20 -16 -20 -9 0 -14 -6 -11 -12 2 -7 10 -12 17 -10 18
4 60 -38 60 -60 0 -10 -6 -18 -12 -19 -42 -2 -86 -24 -56 -27 7 -1 25 -4 40
-8 25 -6 29 -2 52 47 15 29 26 56 26 60 0 4 -18 9 -40 11 -49 4 -53 16 -14 43
21 15 30 29 32 55 8 100 7 105 -10 108 -9 2 -19 -2 -23 -7z"/>
<path d="M13725 27510 c-3 -5 -3 -20 1 -33 4 -12 7 -30 5 -39 -1 -10 2 -18 6
-18 8 0 12 15 16 69 2 25 -17 40 -28 21z"/>
<path d="M14887 26986 c-7 -19 4 -27 21 -17 10 6 10 10 -1 20 -12 9 -16 8 -20
-3z"/>
<path d="M14948 26973 c6 -2 18 -2 25 0 6 3 1 5 -13 5 -14 0 -19 -2 -12 -5z"/>
<path d="M14305 27270 c-3 -5 -1 -10 4 -10 6 0 11 5 11 10 0 6 -2 10 -4 10 -3
0 -8 -4 -11 -10z"/>
<path d="M4218 20394 l-6 -266 -28 -25 -29 -24 31 15 c21 10 33 24 36 43 7 35
11 523 5 523 -2 0 -6 -120 -9 -266z"/>
<path d="M12061 23694 c0 -11 3 -14 6 -6 3 7 2 16 -1 19 -3 4 -6 -2 -5 -13z"/>
<path d="M11328 23650 c-4 -14 -8 -34 -8 -45 1 -19 1 -19 11 -2 6 10 9 30 7
45 l-3 27 -7 -25z"/>
<path d="M11146 23625 c-3 -9 -6 -24 -5 -33 0 -9 5 -4 10 12 9 32 6 48 -5 21z"/>
<path d="M10802 23570 c0 -14 2 -19 5 -12 2 6 2 18 0 25 -3 6 -5 1 -5 -13z"/>
<path d="M10398 23581 c3 -19 -1 -30 -12 -34 -14 -6 -15 -3 -5 14 6 11 8 23 6
26 -3 2 -11 -5 -17 -17 -13 -23 1 -50 26 -50 17 0 21 7 29 53 6 32 5 37 -12
37 -16 0 -19 -6 -15 -29z"/>
<path d="M13806 23018 c-4 -9 -20 -22 -36 -28 -25 -10 -27 -14 -17 -31 6 -10
17 -19 24 -19 19 0 45 46 41 72 -4 19 -6 20 -12 6z"/>
<path d="M13423 18460 c-26 -10 -30 -42 -9 -59 17 -14 31 2 38 42 6 29 4 30
-29 17z"/>
<path d="M13253 18331 c-6 -18 -7 -31 -2 -31 12 0 22 24 17 45 -2 12 -7 7 -15
-14z"/>
<path d="M13065 18289 c-33 -16 -51 -27 -40 -23 58 18 81 28 95 40 19 19 15
17 -55 -17z"/>
<path d="M13185 18268 c-11 -7 -26 -18 -33 -25 -7 -7 -43 -33 -80 -57 -37 -24
-101 -76 -142 -116 -56 -54 -60 -59 -15 -20 54 48 125 101 263 198 45 31 49
44 7 20z"/>
<path d="M12535 17764 l-40 -36 43 32 c36 27 49 40 40 40 -2 0 -21 -16 -43
-36z"/>
<path d="M11688 16979 l-33 -31 32 22 c18 11 35 25 38 30 12 19 -5 9 -37 -21z"/>
<path d="M15813 18663 c-15 -21 -72 -82 -126 -135 -54 -54 -94 -98 -90 -98 16
0 221 206 236 238 20 42 14 41 -20 -5z"/>
<path d="M13016 17053 c-6 -14 -5 -15 5 -6 7 7 10 15 7 18 -3 3 -9 -2 -12 -12z"/>
<path d="M10110 16459 c0 -5 5 -7 10 -4 6 3 10 8 10 11 0 2 -4 4 -10 4 -5 0
-10 -5 -10 -11z"/>
<path d="M10097 16362 c-5 -46 -6 -86 -4 -89 8 -7 19 97 15 137 -2 22 -6 5
-11 -48z"/>
<path d="M10071 16162 c-6 -12 -11 -27 -11 -34 1 -7 8 0 16 15 9 16 13 31 11
34 -3 2 -10 -4 -16 -15z"/>
<path d="M10052 16095 c0 -11 3 -29 8 -40 11 -25 11 1 0 35 -6 20 -8 21 -8 5z"/>
<path d="M9962 16060 c0 -14 2 -19 5 -12 2 6 2 18 0 25 -3 6 -5 1 -5 -13z"/>
<path d="M9942 16040 c0 -14 2 -19 5 -12 2 6 2 18 0 25 -3 6 -5 1 -5 -13z"/>
<path d="M4160 18312 c0 -5 17 -16 38 -25 20 -9 44 -20 52 -25 45 -26 100 -52
100 -47 0 3 -30 25 -67 48 -68 43 -123 65 -123 49z"/>
<path d="M8320 16280 c8 -5 20 -10 25 -10 6 0 3 5 -5 10 -8 5 -19 10 -25 10
-5 0 -3 -5 5 -10z"/>
<path d="M8395 16250 c3 -5 16 -10 28 -9 21 0 21 1 2 9 -28 12 -37 12 -30 0z"/>
<path d="M9257 17247 c-4 -10 -7 -28 -6 -40 0 -21 1 -21 10 2 5 14 8 32 7 40
-3 13 -5 13 -11 -2z"/>
<path d="M3194 38192 c-6 -4 -11 -51 -12 -110 -1 -99 0 -105 24 -129 14 -14
28 -37 30 -52 8 -44 13 -51 38 -51 18 0 30 9 41 30 12 23 22 30 46 30 32 0 51
26 28 40 -15 10 -68 2 -86 -13 -9 -6 -13 -6 -13 2 0 6 5 11 10 11 6 0 10 28
10 65 0 53 -3 66 -19 75 -28 14 -28 14 -35 -25 -3 -19 -9 -51 -12 -70 -4 -20
-11 -34 -18 -32 -13 4 -23 97 -16 147 4 31 9 35 39 38 25 3 32 0 28 -10 -8
-22 38 -61 63 -53 31 10 24 33 -12 43 -21 5 -38 18 -46 35 -7 15 -21 27 -32
27 -10 0 -24 2 -32 5 -7 3 -18 1 -24 -3z"/>
<path d="M3226 38114 c-3 -9 -6 -27 -6 -42 0 -31 13 -20 28 26 9 25 8 32 -2
32 -8 0 -17 -7 -20 -16z"/>
<path d="M4822 37950 c0 -14 2 -19 5 -12 2 6 2 18 0 25 -3 6 -5 1 -5 -13z"/>
<path d="M4824 37854 c-4 -16 -2 -34 5 -43 26 -37 32 -64 20 -93 -6 -15 -18
-28 -25 -28 -23 0 -16 -39 11 -56 14 -9 45 -19 70 -22 43 -4 45 -3 45 21 0 36
-42 141 -50 126 -5 -7 -11 7 -15 32 -4 25 -18 54 -31 67 l-23 24 -7 -28z m84
-166 c-2 -21 -9 -34 -19 -36 -14 -3 -15 2 -5 33 14 44 28 46 24 3z"/>
<path d="M4680 37671 c0 -10 47 -21 54 -13 3 3 3 9 0 13 -7 12 -54 12 -54 0z"/>
<path d="M7714 34733 c14 -88 115 -283 146 -283 24 0 5 54 -60 165 -89 154
-92 158 -86 118z"/>
<path d="M1421 24897 c-11 -11 9 -65 28 -72 19 -8 23 -2 25 44 2 37 0 40 -21
39 -13 -2 -27 -6 -32 -11z"/>
<path d="M6396 7489 c-9 -45 -8 -49 9 -49 16 0 30 42 21 65 -9 25 -23 17 -30
-16z"/>
<path d="M6387 7423 c-3 -5 1 -13 8 -20 10 -10 14 -9 18 1 8 21 -15 37 -26 19z"/>
<path d="M6437 7400 c3 -11 12 -20 20 -20 10 0 13 6 9 16 -3 9 -6 18 -6 20 0
2 -6 4 -14 4 -9 0 -12 -7 -9 -20z"/>
<path d="M6444 7354 c-7 -3 -10 -14 -7 -24 3 -12 -1 -22 -11 -26 -9 -3 -16
-14 -15 -23 0 -9 3 -11 5 -4 3 7 12 9 20 6 8 -3 15 1 16 8 2 22 5 69 4 68 -1
0 -6 -3 -12 -5z"/>
<path d="M12006 6997 c3 -10 9 -15 12 -12 3 3 0 11 -7 18 -10 9 -11 8 -5 -6z"/>
<path d="M16121 6456 c-23 -25 -18 -27 27 -12 24 8 31 36 9 36 -8 0 -24 -11
-36 -24z"/>
<path d="M6890 6444 c-6 -15 -7 -32 -1 -41 8 -14 9 -14 14 3 3 10 8 29 12 42
9 31 -13 28 -25 -4z"/>
<path d="M15930 6230 c0 -5 7 -10 15 -10 8 0 15 5 15 10 0 6 -7 10 -15 10 -8
0 -15 -4 -15 -10z"/>
<path d="M11305 5770 c-3 -5 -2 -10 4 -10 5 0 13 5 16 10 3 6 2 10 -4 10 -5 0
-13 -4 -16 -10z"/>
<path d="M13657 4743 c8 -50 13 -55 13 -10 0 20 -4 38 -9 42 -6 3 -7 -10 -4
-32z"/>
<path d="M13728 4494 c-13 -12 17 -154 31 -154 16 0 19 26 9 81 -9 52 -28 86
-40 73z"/>
<path d="M12720 3617 c0 -7 14 -21 30 -30 36 -21 39 -9 7 21 -27 25 -37 28
-37 9z"/>
<path d="M13640 3595 c-7 -8 -8 -15 -2 -15 5 0 15 7 22 15 7 8 8 15 2 15 -5 0
-15 -7 -22 -15z"/>
<path d="M13700 3510 c0 -11 40 -34 47 -26 3 3 3 12 0 21 -7 16 -47 21 -47 5z"/>
</g>
</svg>
